<svg width="16" height="16" viewBox="0 0 16 16" fill="none" xmlns="http://www.w3.org/2000/svg">
<path d="M5.64969 8.82765C5.64969 8.62722 5.48712 8.46484 5.28653 8.46484H4.01922C3.81885 8.46484 3.65625 8.62722 3.65625 8.82765V10.0948C3.65625 10.2955 3.81885 10.4579 4.01922 10.4579H5.28653C5.48712 10.4579 5.64969 10.2955 5.64969 10.0948V8.82765ZM8.81686 8.82765C8.81686 8.62722 8.65426 8.46484 8.45406 8.46484H7.18658C6.98622 8.46484 6.82362 8.62722 6.82362 8.82765V10.0948C6.82362 10.2955 6.98622 10.4579 7.18658 10.4579H8.45406C8.65426 10.4579 8.81686 10.2955 8.81686 10.0948V8.82765ZM11.9842 8.82765C11.9842 8.62722 11.8216 8.46484 11.6212 8.46484H10.3539C10.1533 8.46484 9.99075 8.62722 9.99075 8.82765V10.0948C9.99075 10.2955 10.1533 10.4579 10.3539 10.4579H11.6212C11.8216 10.4579 11.9842 10.2955 11.9842 10.0948V8.82765ZM5.64969 11.9951C5.64969 11.7944 5.48712 11.6321 5.28653 11.6321H4.01922C3.81885 11.6321 3.65625 11.7944 3.65625 11.9951V13.2621C3.65625 13.4626 3.81885 13.625 4.01922 13.625H5.28653C5.48712 13.625 5.64969 13.4626 5.64969 13.2621V11.9951ZM8.81686 11.9951C8.81686 11.7944 8.65426 11.6321 8.45406 11.6321H7.18658C6.98622 11.6321 6.82362 11.7944 6.82362 11.9951V13.2621C6.82362 13.4626 6.98622 13.625 7.18658 13.625H8.45406C8.65426 13.625 8.81686 13.4626 8.81686 13.2621V11.9951ZM11.9842 11.9951C11.9842 11.7944 11.8216 11.6321 11.6214 11.6321H10.3539C10.1533 11.6321 9.99075 11.7944 9.99075 11.9951V13.2621C9.99075 13.4626 10.1533 13.625 10.3539 13.625H11.6214C11.8216 13.625 11.9842 13.4626 11.9842 13.2621V11.9951Z" fill="black"/>
<path d="M14.2527 1.78039V3.71584C14.2527 4.59065 13.543 5.29561 12.6683 5.29561H11.6689C10.7941 5.29561 10.075 4.59065 10.075 3.71584V1.77344H5.57022V3.71584C5.57022 4.59065 4.85117 5.29561 3.97656 5.29561H2.9769C2.10226 5.29561 1.39261 4.59065 1.39261 3.71584V1.78039C0.628164 1.80343 0 2.43598 0 3.21348V14.5562C0 15.3483 0.642028 15.9988 1.43414 15.9988H14.2111C15.002 15.9988 15.6453 15.3469 15.6453 14.5562V3.21348C15.6453 2.43598 15.0171 1.80343 14.2527 1.78039ZM13.7885 13.8498C13.7885 14.1922 13.5109 14.4699 13.1685 14.4699H2.44949C2.10704 14.4699 1.82949 14.1922 1.82949 13.8498V7.99093C1.82949 7.64848 2.10701 7.37076 2.44949 7.37076H13.1684C13.5109 7.37076 13.7884 7.64848 13.7884 7.99093L13.7885 13.8498Z" fill="black"/>
<path d="M2.97306 4.25916H3.96167C4.26174 4.25916 4.50504 4.01621 4.50504 3.71615V0.543207C4.50504 0.243104 4.26174 0 3.96167 0H2.97306C2.67296 0 2.42969 0.243104 2.42969 0.543207V3.71615C2.42969 4.01621 2.67296 4.25916 2.97306 4.25916ZM11.6558 4.25916H12.6444C12.9443 4.25916 13.1876 4.01621 13.1876 3.71615V0.543207C13.1876 0.243104 12.9443 0 12.6444 0H11.6558C11.3558 0 11.1125 0.243104 11.1125 0.543207V3.71615C11.1125 4.01621 11.3558 4.25916 11.6558 4.25916Z" fill="black"/>
</svg>
