<svg width="21" height="22" viewBox="0 0 21 22" fill="none" xmlns="http://www.w3.org/2000/svg">
<path d="M7.58978 11.8464C7.58978 11.5773 7.37156 11.3594 7.10232 11.3594H5.40126C5.13232 11.3594 4.91406 11.5773 4.91406 11.8464V13.5472C4.91406 13.8166 5.13232 14.0346 5.40126 14.0346H7.10232C7.37156 14.0346 7.58978 13.8166 7.58978 13.5472V11.8464ZM11.8409 11.8464C11.8409 11.5773 11.6227 11.3594 11.354 11.3594H9.65269C9.38375 11.3594 9.16549 11.5773 9.16549 11.8464V13.5472C9.16549 13.8166 9.38375 14.0346 9.65269 14.0346H11.354C11.6227 14.0346 11.8409 13.8166 11.8409 13.5472V11.8464ZM16.0923 11.8464C16.0923 11.5773 15.8741 11.3594 15.6051 11.3594H13.9041C13.6348 11.3594 13.4166 11.5773 13.4166 11.8464V13.5472C13.4166 13.8166 13.6348 14.0346 13.9041 14.0346H15.6051C15.8741 14.0346 16.0923 13.8166 16.0923 13.5472V11.8464ZM7.58978 16.098C7.58978 15.8285 7.37156 15.6107 7.10232 15.6107H5.40126C5.13232 15.6107 4.91406 15.8285 4.91406 16.098V17.7985C4.91406 18.0677 5.13232 18.2857 5.40126 18.2857H7.10232C7.37156 18.2857 7.58978 18.0676 7.58978 17.7985V16.098ZM11.8409 16.098C11.8409 15.8285 11.6227 15.6107 11.354 15.6107H9.65269C9.38375 15.6107 9.16549 15.8285 9.16549 16.098V17.7985C9.16549 18.0677 9.38375 18.2857 9.65269 18.2857H11.354C11.6227 18.2857 11.8409 18.0676 11.8409 17.7985V16.098ZM16.0923 16.098C16.0923 15.8285 15.8741 15.6107 15.6054 15.6107H13.9041C13.6348 15.6107 13.4166 15.8285 13.4166 16.098V17.7985C13.4166 18.0677 13.6348 18.2857 13.9041 18.2857H15.6054C15.8741 18.2857 16.0923 18.0676 16.0923 17.7985V16.098Z" fill="white"/>
<path d="M19.1308 2.39214V4.99003C19.1308 6.16425 18.1782 7.11049 17.0042 7.11049H15.6626C14.4885 7.11049 13.5233 6.16425 13.5233 4.99003V2.38281H7.47668V4.99003C7.47668 6.16425 6.51153 7.11049 5.33757 7.11049H3.99578C2.82178 7.11049 1.86925 6.16425 1.86925 4.99003V2.39214C0.843159 2.42307 0 3.27212 0 4.31572V19.5406C0 20.6038 0.861769 21.477 1.92499 21.477H19.075C20.1366 21.477 21 20.602 21 19.5406V4.31572C21 3.27212 20.1569 2.42307 19.1308 2.39214ZM18.5077 18.5925C18.5077 19.052 18.1352 19.4247 17.6755 19.4247H3.28786C2.8282 19.4247 2.45565 19.052 2.45565 18.5925V10.7283C2.45565 10.2686 2.82816 9.89588 3.28786 9.89588H17.6755C18.1351 9.89588 18.5077 10.2686 18.5077 10.7283L18.5077 18.5925Z" fill="white"/>
<path d="M3.99497 5.71689H5.32194C5.72471 5.71689 6.05128 5.39081 6.05128 4.98803V0.729125C6.05128 0.326309 5.72471 0 5.32194 0H3.99497C3.59215 0 3.26562 0.326309 3.26562 0.729125V4.98803C3.26562 5.39081 3.59215 5.71689 3.99497 5.71689ZM15.6495 5.71689H16.9764C17.379 5.71689 17.7055 5.39081 17.7055 4.98803V0.729125C17.7056 0.326309 17.379 0 16.9764 0H15.6495C15.2468 0 14.9202 0.326309 14.9202 0.729125V4.98803C14.9202 5.39081 15.2468 5.71689 15.6495 5.71689Z" fill="white"/>
</svg>
