<svg width="15" height="16" viewBox="0 0 15 16" fill="none" xmlns="http://www.w3.org/2000/svg">
<path d="M5.63885 8.63139C5.63885 8.45091 5.49245 8.30469 5.31182 8.30469H4.1706C3.99018 8.30469 3.84375 8.45091 3.84375 8.63139V9.77246C3.84375 9.95318 3.99018 10.0995 4.1706 10.0995H5.31182C5.49245 10.0995 5.63885 9.95318 5.63885 9.77246V8.63139ZM8.4909 8.63139C8.4909 8.45091 8.34447 8.30469 8.16419 8.30469H7.02283C6.8424 8.30469 6.69598 8.45091 6.69598 8.63139V9.77246C6.69598 9.95318 6.8424 10.0995 7.02283 10.0995H8.16419C8.34447 10.0995 8.4909 9.95318 8.4909 9.77246V8.63139ZM11.3431 8.63139C11.3431 8.45091 11.1967 8.30469 11.0162 8.30469H9.87502C9.69439 8.30469 9.54799 8.45091 9.54799 8.63139V9.77246C9.54799 9.95318 9.69439 10.0995 9.87502 10.0995H11.0162C11.1967 10.0995 11.3431 9.95318 11.3431 9.77246V8.63139ZM5.63885 11.4837C5.63885 11.303 5.49245 11.1569 5.31182 11.1569H4.1706C3.99018 11.1569 3.84375 11.303 3.84375 11.4837V12.6246C3.84375 12.8052 3.99018 12.9515 4.1706 12.9515H5.31182C5.49245 12.9515 5.63885 12.8052 5.63885 12.6246V11.4837ZM8.4909 11.4837C8.4909 11.303 8.34447 11.1569 8.16419 11.1569H7.02283C6.8424 11.1569 6.69598 11.303 6.69598 11.4837V12.6246C6.69598 12.8052 6.8424 12.9515 7.02283 12.9515H8.16419C8.34447 12.9515 8.4909 12.8052 8.4909 12.6246V11.4837ZM11.3431 11.4837C11.3431 11.303 11.1967 11.1569 11.0164 11.1569H9.87502C9.69439 11.1569 9.54799 11.303 9.54799 11.4837V12.6246C9.54799 12.8052 9.69439 12.9515 9.87502 12.9515H11.0164C11.1967 12.9515 11.3431 12.8052 11.3431 12.6246V11.4837Z" fill="#D79131"/>
<path d="M13.3815 2.28751V4.03039C13.3815 4.81816 12.7424 5.45298 11.9547 5.45298H11.0547C10.267 5.45298 9.61948 4.81816 9.61948 4.03039V2.28125H5.56288V4.03039C5.56288 4.81816 4.91537 5.45298 4.12778 5.45298H3.22759C2.43997 5.45298 1.80093 4.81816 1.80093 4.03039V2.28751C1.11254 2.30826 0.546875 2.87788 0.546875 3.57801V13.7922C0.546875 14.5055 1.12502 15.0913 1.83832 15.0913H13.344C14.0563 15.0913 14.6355 14.5042 14.6355 13.7922V3.57801C14.6355 2.87788 14.0698 2.30826 13.3815 2.28751ZM12.9634 13.1561C12.9634 13.4644 12.7135 13.7144 12.4051 13.7144H2.75265C2.44428 13.7144 2.19434 13.4644 2.19434 13.1561V7.88012C2.19434 7.57175 2.44425 7.32166 2.75265 7.32166H12.4051C12.7135 7.32166 12.9634 7.57175 12.9634 7.88012L12.9634 13.1561Z" fill="#D79131"/>
<path d="M3.22368 4.51507H4.11393C4.38414 4.51507 4.60323 4.2963 4.60323 4.02609V1.16885C4.60323 0.898604 4.38414 0.679688 4.11393 0.679688H3.22368C2.95344 0.679688 2.73438 0.898604 2.73438 1.16885V4.02609C2.73438 4.2963 2.95344 4.51507 3.22368 4.51507ZM11.0425 4.51507H11.9328C12.2028 4.51507 12.4219 4.2963 12.4219 4.02609V1.16885C12.4219 0.898604 12.2028 0.679688 11.9328 0.679688H11.0425C10.7723 0.679688 10.5533 0.898604 10.5533 1.16885V4.02609C10.5533 4.2963 10.7723 4.51507 11.0425 4.51507Z" fill="#D79131"/>
</svg>
