<svg width="15" height="15" viewBox="0 0 15 15" fill="none" xmlns="http://www.w3.org/2000/svg">
<path d="M12.9395 2.75074C11.609 1.42025 9.83997 0.6875 7.95837 0.6875C6.07677 0.6875 4.30777 1.42025 2.97727 2.75074C1.64678 4.08123 0.914062 5.8502 0.914062 7.7318C0.914062 9.6134 1.64678 11.3824 2.97727 12.7129C4.30777 14.0433 6.07677 14.7761 7.95837 14.7761C9.83997 14.7761 11.609 14.0434 12.9395 12.7129C14.27 11.3824 15.0027 9.6134 15.0027 7.7318C15.0027 5.8502 14.27 4.0812 12.9395 2.75074ZM7.95837 13.3934C4.8365 13.3934 2.29673 10.8536 2.29673 7.7318C2.29673 7.72669 2.29689 7.72162 2.29692 7.71656C2.29692 7.71527 2.29673 7.71403 2.29673 7.71273C2.29673 7.71056 2.297 7.70847 2.29706 7.70632C2.31079 4.62188 4.80345 2.11243 7.88143 2.07116C7.88787 2.07085 7.89425 2.07019 7.90077 2.07019C7.90468 2.07019 7.90848 2.07066 7.91236 2.07077C7.92771 2.07066 7.94301 2.07019 7.95839 2.07019C11.0803 2.07019 13.62 4.60999 13.62 7.73183C13.62 10.8537 11.0802 13.3934 7.95837 13.3934Z" fill="#D79131"/>
<path d="M12.2605 8.06881C12.0303 8.06881 11.8437 7.8822 11.8437 7.65199C11.8437 7.42178 12.0303 7.23517 12.2605 7.23517H12.7629C12.5269 4.92166 10.6507 3.08637 8.31918 2.91406V3.35144C8.31918 3.58165 8.13256 3.76827 7.90235 3.76827C7.67215 3.76827 7.48553 3.58165 7.48553 3.35144V2.92402C5.18853 3.14911 3.35886 4.99059 3.15185 7.29276H3.6018C3.83201 7.29276 4.01863 7.47938 4.01863 7.70958C4.01863 7.93979 3.83201 8.12641 3.6018 8.12641H3.14844C3.34009 10.4656 5.20645 12.3377 7.54315 12.5385V12.0101C7.54315 11.7799 7.72977 11.5933 7.95997 11.5933C8.19018 11.5933 8.3768 11.7799 8.3768 12.0101V12.5385C10.7326 12.3361 12.6103 10.4348 12.7758 8.06881H12.2605ZM9.6473 6.63084L8.25473 8.02344C8.21603 8.06215 8.17008 8.09286 8.11951 8.11381C8.06894 8.13476 8.01474 8.14554 7.96 8.14554C7.90526 8.14554 7.85106 8.13476 7.80049 8.11381C7.74992 8.09286 7.70397 8.06215 7.66527 8.02344L5.24123 5.5994C5.07844 5.43664 5.07844 5.17272 5.24123 5.00994C5.40399 4.84715 5.6679 4.84715 5.83069 5.00994L7.96003 7.13924L9.05789 6.04138C9.22065 5.87859 9.48457 5.87859 9.64736 6.04138C9.81009 6.20414 9.81009 6.46808 9.6473 6.63084Z" fill="#D79131"/>
</svg>
