<svg width="21" height="21" viewBox="0 0 21 21" fill="none" xmlns="http://www.w3.org/2000/svg">
<path d="M17.9246 3.07539C15.9415 1.09221 13.3046 0 10.5 0C7.69535 0 5.05854 1.09221 3.07535 3.07539C1.09216 5.05858 0 7.69535 0 10.5C0 13.3046 1.09216 15.9415 3.07535 17.9246C5.05854 19.9078 7.69535 21 10.5 21C13.3046 21 15.9415 19.9078 17.9246 17.9246C19.9078 15.9414 21 13.3046 21 10.5C21 7.69535 19.9078 5.05854 17.9246 3.07539ZM10.5 18.939C5.84665 18.939 2.06095 15.1533 2.06095 10.5C2.06095 10.4924 2.0612 10.4848 2.06124 10.4773C2.06124 10.4753 2.06095 10.4735 2.06095 10.4716C2.06095 10.4683 2.06136 10.4652 2.06145 10.462C2.08191 5.86446 5.79739 2.12395 10.3853 2.06243C10.3949 2.06198 10.4044 2.06099 10.4142 2.06099C10.42 2.06099 10.4256 2.06169 10.4314 2.06186C10.4543 2.06169 10.4771 2.06099 10.5 2.06099C15.1534 2.06099 18.9391 5.84674 18.9391 10.5C18.9391 15.1533 15.1533 18.939 10.5 18.939Z" fill="white"/>
<path d="M16.9102 11.0077C16.5671 11.0077 16.2889 10.7295 16.2889 10.3864C16.2889 10.0433 16.5671 9.76511 16.9102 9.76511H17.6591C17.3074 6.31668 14.5107 3.58106 11.0355 3.32422V3.97616C11.0355 4.3193 10.7573 4.59747 10.4141 4.59747C10.071 4.59747 9.79284 4.3193 9.79284 3.97616V3.33907C6.36902 3.67457 3.64177 6.41942 3.33321 9.85095H4.0039C4.34704 9.85095 4.6252 10.1291 4.6252 10.4723C4.6252 10.8154 4.34704 11.0936 4.0039 11.0936H3.32812C3.6138 14.5803 6.39572 17.3708 9.87873 17.6701V16.8825C9.87873 16.5393 10.1569 16.2612 10.5 16.2612C10.8432 16.2612 11.1213 16.5393 11.1213 16.8825V17.6701C14.6329 17.3683 17.4317 14.5344 17.6784 11.0077H16.9102ZM13.0151 8.86432L10.9394 10.9401C10.8817 10.9978 10.8132 11.0436 10.7378 11.0748C10.6625 11.106 10.5817 11.1221 10.5001 11.1221C10.4185 11.1221 10.3377 11.106 10.2623 11.0748C10.1869 11.0436 10.1184 10.9978 10.0608 10.9401L6.44757 7.32689C6.20492 7.08429 6.20492 6.6909 6.44757 6.44826C6.69018 6.20561 7.08356 6.20561 7.32621 6.44826L10.5001 9.62213L12.1366 7.98569C12.3792 7.74304 12.7725 7.74304 13.0152 7.98569C13.2578 8.22829 13.2578 8.62171 13.0151 8.86432Z" fill="white"/>
</svg>
