<svg width="80" height="87" viewBox="0 0 80 87" fill="none" xmlns="http://www.w3.org/2000/svg">
<path d="M59.4422 86.2876H20.3612C19.5004 86.2876 18.8026 85.5896 18.8026 84.7289V15.275C18.8026 14.4143 19.5004 13.7163 20.3612 13.7163H59.442C60.3029 13.7163 61.0007 14.4143 61.0007 15.275V84.7289C61.0008 85.5896 60.303 86.2876 59.4422 86.2876ZM21.9199 83.1703H57.8834V16.8336H21.9199V83.1703Z" fill="#1E374A"/>
<path d="M78.2448 86.2876H1.55866C0.697813 86.2876 0 85.5896 0 84.7289C0 83.8683 0.697813 83.1703 1.55866 83.1703H78.2448C79.1057 83.1703 79.8035 83.8683 79.8035 84.7289C79.8035 85.5896 79.1057 86.2876 78.2448 86.2876Z" fill="#1E374A"/>
<path d="M47.7886 86.2875H32.0149C31.1541 86.2875 30.4563 85.5896 30.4563 84.7289V57.3173C30.4563 56.4566 31.1541 55.7587 32.0149 55.7587H47.7886C48.6494 55.7587 49.3472 56.4566 49.3472 57.3173V84.7289C49.3472 85.5896 48.6494 86.2875 47.7886 86.2875ZM33.5736 83.1702H46.2299V58.876H33.5736V83.1702Z" fill="#1E374A"/>
<path d="M66.3366 10.3495H13.4045C12.5436 10.3495 11.8458 9.65154 11.8458 8.79085V1.55866C11.8458 0.697969 12.5436 0 13.4045 0H66.3366C67.1975 0 67.8953 0.697969 67.8953 1.55866V8.79085C67.8953 9.6517 67.1975 10.3495 66.3366 10.3495ZM14.9632 7.23219H64.778V3.11732H14.9632V7.23219ZM75.6886 79.8035H59.411C58.5502 79.8035 57.8524 79.1055 57.8524 78.2448V19.982C57.8524 19.7293 57.9139 19.4803 58.0316 19.2566C58.1493 19.0329 58.3196 18.8412 58.5278 18.6979C58.7361 18.5547 58.976 18.4642 59.227 18.4344C59.478 18.4045 59.7325 18.4361 59.9686 18.5264L76.2461 24.7611C76.5407 24.8739 76.7941 25.0734 76.9729 25.3333C77.1516 25.5932 77.2473 25.9013 77.2473 26.2167V78.2448C77.2473 79.1055 76.5495 79.8035 75.6886 79.8035ZM60.9697 76.6861H74.1299V27.2887L60.9697 22.2482V76.6861ZM20.3301 79.8035H4.05253C3.19168 79.8035 2.49387 79.1055 2.49387 78.2448V26.2167C2.49387 25.5709 2.89195 24.9922 3.49499 24.7611L19.7726 18.5264C20.0086 18.436 20.2631 18.4043 20.5142 18.4342C20.7652 18.464 21.0052 18.5545 21.2134 18.6978C21.4217 18.841 21.592 19.0328 21.7097 19.2565C21.8273 19.4803 21.8888 19.7293 21.8888 19.982V78.2448C21.8888 79.1055 21.1909 79.8035 20.3301 79.8035ZM5.61119 76.6861H18.7714V22.2482L5.61119 27.2887V76.6861Z" fill="#1E374A"/>
<path d="M39.8706 79.8034C39.0097 79.8034 38.3119 79.1054 38.3119 78.2447V50.8332C38.3119 49.9725 39.0097 49.2745 39.8706 49.2745C40.7314 49.2745 41.4292 49.9725 41.4292 50.8332V78.2447C41.4292 79.1054 40.7314 79.8034 39.8706 79.8034ZM34.3529 45.7103H27.0375C26.1766 45.7103 25.4788 45.0124 25.4788 44.1517V36.8363C25.4788 35.9756 26.1766 35.2776 27.0375 35.2776H34.3529C35.2137 35.2776 35.9116 35.9756 35.9116 36.8363V44.1517C35.9116 45.0124 35.2137 45.7103 34.3529 45.7103ZM28.5963 42.593H32.7942V38.3949H28.5961V42.593H28.5963ZM53.0568 45.7103H45.7414C44.8806 45.7103 44.1828 45.0124 44.1828 44.1517V36.8363C44.1828 35.9756 44.8806 35.2776 45.7414 35.2776H53.0568C53.9177 35.2776 54.6155 35.9756 54.6155 36.8363V44.1517C54.6155 45.0124 53.9177 45.7103 53.0568 45.7103ZM47.3002 42.593H51.4982V38.3949H47.3001V42.593H47.3002ZM43.7049 31.6824H36.3894C35.5286 31.6824 34.8308 30.9844 34.8308 30.1237V22.8083C34.8308 21.9476 35.5286 21.2496 36.3894 21.2496H43.7049C44.5657 21.2496 45.2635 21.9476 45.2635 22.8083V30.1237C45.2635 30.9844 44.5657 31.6824 43.7049 31.6824ZM37.9483 28.5651H42.1462V24.367H37.9481V28.5651H37.9483ZM39.8706 44.5777C39.4606 44.5777 39.0585 44.4109 38.7686 44.1208C38.4773 43.8279 38.3133 43.432 38.3119 43.019C38.3119 42.9177 38.3228 42.8147 38.3431 42.7151C38.3618 42.6153 38.3929 42.5171 38.4319 42.4236C38.4709 42.3285 38.5192 42.2383 38.5753 42.1541C38.6314 42.0682 38.6969 41.9887 38.7686 41.917C38.8403 41.8453 38.9198 41.7799 39.0055 41.7237C39.0897 41.6661 39.1801 41.6193 39.2736 41.5804C39.3687 41.5414 39.4669 41.5102 39.5651 41.49C39.7661 41.451 39.9734 41.451 40.1745 41.49C40.2743 41.5102 40.3725 41.5414 40.466 41.5804C40.5611 41.6193 40.6514 41.6661 40.7356 41.7237C40.8213 41.7799 40.9008 41.8453 40.9725 41.917C41.0442 41.9887 41.1097 42.0682 41.1658 42.1541C41.3361 42.4105 41.4277 42.7112 41.4292 43.019C41.4292 43.4305 41.2624 43.8311 40.9725 44.1208C40.9008 44.1927 40.8213 44.2581 40.7356 44.3141C40.6514 44.3702 40.5611 44.4185 40.466 44.4575C40.3725 44.4965 40.2743 44.5276 40.1745 44.5479C40.0747 44.5681 39.9719 44.5777 39.8706 44.5777ZM39.8706 38.343C39.7692 38.343 39.6664 38.3321 39.5666 38.3118C39.4669 38.2931 39.3687 38.262 39.2752 38.223C39.1807 38.1843 39.0904 38.1362 39.0055 38.0796C38.92 38.0236 38.8406 37.9588 38.7686 37.8863C38.6962 37.8142 38.6315 37.7348 38.5753 37.6494C38.5187 37.5645 38.4707 37.4742 38.4319 37.3798C38.3929 37.2862 38.3618 37.1882 38.3431 37.0884C38.3226 36.9884 38.3122 36.8866 38.3119 36.7845C38.3119 36.6832 38.3228 36.5802 38.3431 36.4806C38.3618 36.3808 38.3929 36.2826 38.4319 36.1891C38.4709 36.094 38.5192 36.0038 38.5753 35.9196C38.6314 35.8337 38.6969 35.7542 38.7686 35.6825C38.8403 35.6108 38.9198 35.5454 39.0055 35.4893C39.0897 35.4333 39.1801 35.3848 39.2752 35.3459C39.3687 35.3069 39.4669 35.2757 39.5666 35.2572C39.7672 35.2165 39.9739 35.2165 40.1745 35.2572C40.2743 35.2757 40.3725 35.3069 40.466 35.3459C40.5611 35.3848 40.6514 35.4333 40.7356 35.4893C40.8213 35.5454 40.9008 35.6108 40.9725 35.6825C41.0442 35.7542 41.1097 35.8337 41.1658 35.9196C41.2219 36.0038 41.2702 36.094 41.3092 36.1891C41.3482 36.2828 41.3793 36.3808 41.398 36.4806C41.4183 36.5803 41.4292 36.6832 41.4292 36.7845C41.4292 36.8857 41.4183 36.9887 41.398 37.0884C41.3793 37.1882 41.3482 37.2864 41.3092 37.3798C41.2705 37.4742 41.2224 37.5645 41.1658 37.6494C41.1097 37.7348 41.0449 37.8142 40.9725 37.8863C40.9008 37.9582 40.8213 38.0236 40.7356 38.0796C40.6514 38.1357 40.5611 38.184 40.466 38.223C40.3725 38.262 40.2743 38.2931 40.1745 38.3118C40.0747 38.3321 39.9719 38.343 39.8706 38.343ZM30.3627 31.9525C30.2614 31.9525 30.1585 31.9416 30.0588 31.9213C29.959 31.9011 29.8608 31.8715 29.7658 31.8325C29.6722 31.7935 29.5818 31.7452 29.4977 31.6891C29.4122 31.633 29.3328 31.5683 29.2607 31.4958C29.1884 31.4237 29.1236 31.3443 29.0675 31.2589C29.0109 31.174 28.9628 31.0837 28.9241 30.9893C28.8458 30.8005 28.805 30.5983 28.8041 30.394C28.8054 30.0861 28.897 29.7854 29.0675 29.5291C29.1236 29.4432 29.1891 29.3637 29.2607 29.292C29.3324 29.2203 29.4119 29.1549 29.4977 29.0987C29.5818 29.0411 29.6722 28.9943 29.7658 28.9554C29.8608 28.9164 29.959 28.8852 30.0588 28.8649C30.2599 28.826 30.4656 28.8244 30.6667 28.8649C30.7664 28.8852 30.8646 28.9164 30.9581 28.9554C31.0532 28.9943 31.1436 29.0411 31.2278 29.0987C31.3135 29.1549 31.393 29.2203 31.4647 29.292C31.5364 29.3637 31.6019 29.4432 31.658 29.5291C31.7156 29.6133 31.7624 29.7035 31.8014 29.7986C31.8403 29.8923 31.8715 29.9903 31.8918 30.0901C31.912 30.1898 31.9214 30.2927 31.9214 30.394C31.9214 30.4952 31.912 30.5982 31.8902 30.6979C31.8715 30.7977 31.8403 30.8959 31.8014 30.9893C31.7626 31.0837 31.7146 31.174 31.658 31.2589C31.6018 31.3443 31.5371 31.4237 31.4647 31.4958C31.393 31.5677 31.3135 31.6331 31.2278 31.6891C31.1436 31.7452 31.0532 31.7935 30.9581 31.8325C30.7693 31.9108 30.5671 31.9515 30.3627 31.9525ZM30.3627 25.7179C30.2614 25.7179 30.1585 25.7069 30.0588 25.6867C29.959 25.668 29.8608 25.6368 29.7673 25.5978C29.6729 25.5591 29.5826 25.5111 29.4977 25.4544C29.4122 25.3984 29.3328 25.3336 29.2607 25.2612C29.1884 25.189 29.1236 25.1096 29.0675 25.0243C29.0109 24.9393 28.9628 24.849 28.9241 24.7546C28.8851 24.6611 28.8539 24.563 28.8352 24.4633C28.8148 24.3633 28.8043 24.2614 28.8041 24.1594C28.8041 24.058 28.815 23.955 28.8352 23.8554C28.8539 23.7557 28.8851 23.6575 28.9241 23.5624C28.963 23.4687 29.0114 23.3785 29.0675 23.2943C29.1236 23.2084 29.1891 23.1289 29.2607 23.0572C29.3324 22.9855 29.4119 22.9201 29.4977 22.8639C29.5818 22.8063 29.6722 22.7595 29.7673 22.7206C29.8608 22.6816 29.959 22.6504 30.0588 22.6319C30.2594 22.5912 30.4661 22.5912 30.6667 22.6319C30.7664 22.6504 30.8646 22.6816 30.9597 22.7206C31.0532 22.7595 31.1436 22.8063 31.2278 22.8639C31.3135 22.9201 31.393 22.9855 31.4647 23.0572C31.5364 23.1289 31.6019 23.2084 31.658 23.2943C31.7141 23.3785 31.7624 23.4687 31.8014 23.5624C31.8403 23.6575 31.8715 23.7557 31.8902 23.8554C31.9105 23.9552 31.9214 24.058 31.9214 24.1594C31.9214 24.2605 31.9105 24.3635 31.8902 24.4633C31.8715 24.563 31.8403 24.6612 31.8014 24.7546C31.7626 24.849 31.7146 24.9393 31.658 25.0243C31.6018 25.1096 31.5371 25.189 31.4647 25.2612C31.393 25.333 31.3135 25.3985 31.2278 25.4544C31.1436 25.5106 31.0532 25.5589 30.9581 25.5978C30.8646 25.6368 30.7664 25.668 30.6667 25.6867C30.5669 25.7069 30.464 25.7179 30.3627 25.7179ZM50.6253 25.7179C50.524 25.7179 50.4211 25.7069 50.3214 25.6867C50.221 25.6671 50.1228 25.6373 50.0284 25.5978C49.9348 25.5589 49.8444 25.5106 49.7603 25.4544C49.6748 25.3984 49.5954 25.3336 49.5233 25.2612C49.451 25.189 49.3862 25.1096 49.3301 25.0243C49.2735 24.9393 49.2254 24.849 49.1867 24.7546C49.1477 24.6611 49.1165 24.563 49.0978 24.4633C49.0774 24.3633 49.0669 24.2614 49.0667 24.1594C49.0667 24.058 49.0776 23.955 49.0978 23.8554C49.1165 23.7557 49.1477 23.6575 49.1867 23.5624C49.2256 23.4687 49.274 23.3785 49.3301 23.2943C49.3862 23.2084 49.4517 23.1289 49.5233 23.0572C49.5951 22.9855 49.6745 22.9201 49.7603 22.8639C49.8444 22.8063 49.9348 22.7595 50.0284 22.7206C50.1234 22.6816 50.2216 22.6504 50.3214 22.6319C50.522 22.5912 50.7287 22.5912 50.9293 22.6319C51.029 22.6504 51.1272 22.6816 51.2207 22.7206C51.3158 22.7595 51.4062 22.8063 51.4904 22.8639C51.5761 22.9201 51.6556 22.9855 51.7273 23.0572C51.799 23.1289 51.8645 23.2084 51.9206 23.2943C51.9767 23.3785 52.025 23.4687 52.064 23.5624C52.1029 23.6575 52.1341 23.7557 52.1544 23.8554C52.1746 23.9552 52.184 24.058 52.184 24.1594C52.184 24.2605 52.1746 24.3635 52.1544 24.4633C52.1341 24.563 52.1029 24.6612 52.064 24.7546C52.0252 24.849 51.9772 24.9393 51.9206 25.0243C51.8644 25.1096 51.7997 25.189 51.7273 25.2612C51.6556 25.333 51.5761 25.3985 51.4904 25.4544C51.4062 25.5106 51.3158 25.5589 51.2207 25.5978C51.1272 25.6368 51.029 25.668 50.9293 25.6867C50.8295 25.7069 50.7266 25.7179 50.6253 25.7179ZM50.6253 31.9525C50.524 31.9525 50.4211 31.9416 50.3214 31.9213C50.2216 31.9011 50.1234 31.8715 50.0284 31.8325C49.9348 31.7935 49.8444 31.7452 49.7603 31.6891C49.6748 31.633 49.5954 31.5683 49.5233 31.4958C49.451 31.4237 49.3862 31.3443 49.3301 31.2589C49.2735 31.174 49.2254 31.0837 49.1867 30.9893C49.1084 30.8005 49.0676 30.5983 49.0667 30.394C49.068 30.0861 49.1596 29.7854 49.3301 29.5291C49.3862 29.4432 49.4517 29.3637 49.5233 29.292C49.5951 29.2203 49.6745 29.1549 49.7603 29.0987C49.8444 29.0411 49.9348 28.9943 50.0284 28.9554C50.1234 28.9164 50.2216 28.8852 50.3214 28.8649C50.5225 28.8244 50.7282 28.826 50.9293 28.8649C51.029 28.8852 51.1272 28.9164 51.2207 28.9554C51.3158 28.9943 51.4062 29.0411 51.4904 29.0987C51.5761 29.1549 51.6556 29.2203 51.7273 29.292C51.799 29.3637 51.8645 29.4432 51.9206 29.5291C51.9767 29.6133 52.025 29.7035 52.064 29.7986C52.1029 29.8923 52.1341 29.9903 52.1528 30.0901C52.1731 30.1898 52.184 30.2927 52.184 30.394C52.184 30.4952 52.1731 30.5982 52.1528 30.6979C52.1341 30.7977 52.1029 30.8959 52.064 30.9893C52.0252 31.0837 51.9772 31.174 51.9206 31.2589C51.8644 31.3443 51.7997 31.4237 51.7273 31.4958C51.6556 31.5677 51.5761 31.6331 51.4904 31.6891C51.4062 31.7452 51.3158 31.7935 51.2207 31.8325C51.0319 31.9108 50.8297 31.9515 50.6253 31.9525ZM52.984 16.8854H26.7571C25.8962 16.8854 25.1984 16.1874 25.1984 15.3267C25.1984 14.466 25.8962 13.7681 26.7571 13.7681H52.9842C53.8451 13.7681 54.5429 14.466 54.5429 15.3267C54.5429 16.1874 53.8449 16.8854 52.984 16.8854ZM12.1914 74.0364C11.3305 74.0364 10.6327 73.3384 10.6327 72.4777V29.5003C10.6327 28.6396 11.3305 27.9416 12.1914 27.9416C13.0522 27.9416 13.75 28.6396 13.75 29.5003V72.4777C13.75 73.3384 13.0521 74.0364 12.1914 74.0364ZM67.5497 74.0364C66.6889 74.0364 65.9911 73.3384 65.9911 72.4777V29.5003C65.9911 28.6396 66.6889 27.9416 67.5497 27.9416C68.4106 27.9416 69.1084 28.6396 69.1084 29.5003V72.4777C69.1084 73.3384 68.4106 74.0364 67.5497 74.0364Z" fill="#1E374A"/>
</svg>
