<svg width="113" height="113" viewBox="0 0 113 113" fill="none" xmlns="http://www.w3.org/2000/svg">
<rect width="113" height="113" rx="12" fill="white" fill-opacity="0.2"/>
<path fill-rule="evenodd" clip-rule="evenodd" d="M68.8861 82.4462H94.4187C94.8753 82.4441 95.3126 82.2618 95.6355 81.9389C95.9583 81.6161 96.1407 81.1788 96.1428 80.7222V73.3368C96.1407 72.8803 95.9583 72.443 95.6355 72.1202C95.3126 71.7973 94.8753 71.615 94.4187 71.6129H71.5838C71.4036 75.3659 70.4869 79.0469 68.8861 82.4462ZM75.6379 53.8746V68.7557H94.4187C95.633 68.7582 96.7967 69.2417 97.6554 70.1003C98.514 70.9588 98.9975 72.1226 99 73.3368V80.7222C99.0002 81.8963 98.5479 83.0254 97.7373 83.8747C98.5479 84.7241 99.0001 85.8532 99 87.0273V94.4127C98.9975 95.6269 98.514 96.7906 97.6554 97.6492C96.7968 98.5077 95.6331 98.9912 94.4189 98.9937H45.9619C45.6694 98.9821 45.3778 98.9523 45.089 98.9045C44.3369 98.964 43.5769 98.9937 42.8092 98.9937C37.172 98.9937 31.6588 97.3398 26.9524 94.237C22.246 91.1343 18.5532 86.7189 16.3316 81.538C14.11 76.3571 13.4572 70.6382 14.454 65.0899C15.4508 59.5416 18.0534 54.4076 21.9394 50.324C25.8254 46.2403 30.8241 43.3864 36.3162 42.1159C41.8083 40.8453 47.5525 41.2139 52.8371 43.1759C58.1218 45.138 62.7147 48.6074 66.047 53.1542C69.3792 57.701 71.3043 63.1255 71.5838 68.7557H72.7802V53.8746L69.1188 47.5322C62.5271 46.5899 56.646 41.4131 53.17 35.3924C51.1503 31.8941 49.9603 28.2214 49.5674 24.7509C49.154 21.0987 49.621 17.6485 50.9282 14.8255L50.9305 14.8267C51.0532 14.5609 51.2549 14.3394 51.5082 14.1924C51.7614 14.0454 52.0538 13.9801 52.3455 14.0053C55.4498 14.2846 58.675 15.6071 61.6332 17.7926C67.547 22.1621 71.822 29.5707 72.6488 36.8742C73.0293 40.2356 72.6645 43.4258 71.5845 46.1135L74.2095 50.6598L76.8345 46.1135C75.7545 43.4258 75.3897 40.2356 75.7702 36.8743C76.597 29.5707 80.8721 22.1619 86.786 17.7926C89.7442 15.6069 92.9693 14.2846 96.0736 14.0053C96.3653 13.9801 96.6577 14.0454 96.9109 14.1924C97.1641 14.3394 97.3658 14.5609 97.4886 14.8267L97.4909 14.8255C98.7988 17.6485 99.265 21.0987 98.8516 24.7509C98.0248 32.0545 93.7496 39.4631 87.8358 43.8326C85.116 45.8422 82.1703 47.1219 79.3001 47.5322L75.6381 53.8751L75.6379 53.8746ZM67.1657 44.149L59.8748 31.5209C59.7817 31.359 59.7215 31.1803 59.6975 30.995C59.6734 30.8098 59.6861 30.6216 59.7348 30.4413C59.7835 30.261 59.8673 30.092 59.9813 29.944C60.0953 29.7961 60.2373 29.672 60.3993 29.5789C60.5612 29.4859 60.7399 29.4256 60.9252 29.4016C61.1104 29.3776 61.2986 29.3903 61.4789 29.439C61.6592 29.4877 61.8282 29.5714 61.9761 29.6854C62.1241 29.7994 62.2482 29.9415 62.3413 30.1034L69.627 42.722C70.615 37.8277 69.2265 32.2284 66.58 27.6552C63.627 22.5532 58.68 17.9709 53.1248 16.9785C52.3417 19.1455 52.0942 21.7107 52.403 24.4387C53.1423 30.9691 56.9937 37.639 62.2802 41.5449C63.7639 42.6614 65.4124 43.5403 67.1665 44.1499L67.1657 44.149ZM78.7917 42.722L86.0774 30.1034C86.2671 29.7797 86.577 29.544 86.9396 29.4477C87.3023 29.3513 87.6883 29.4022 88.0136 29.5891C88.3389 29.7761 88.5772 30.084 88.6765 30.4458C88.7759 30.8076 88.7283 31.194 88.5441 31.5209L81.2531 44.1492C86.0182 42.5476 90.1264 38.5581 92.7823 33.9688C95.7357 28.8657 97.2014 22.2544 95.2948 16.9776C89.7391 17.9707 84.7919 22.5534 81.8392 27.6552C79.1926 32.2282 77.8035 37.8281 78.792 42.722H78.7917ZM49.7255 65.5002C49.7255 62.4148 47.2158 60.0739 44.2379 59.518V57.0144C44.2379 56.6356 44.0874 56.2722 43.8195 56.0043C43.5516 55.7364 43.1882 55.5859 42.8094 55.5859C42.4305 55.5859 42.0671 55.7364 41.7992 56.0043C41.5313 56.2722 41.3808 56.6356 41.3808 57.0144V59.5187C38.4029 60.0737 35.8931 62.4146 35.8931 65.5009C35.8931 69.0693 39.2145 71.6136 42.8094 71.6136C46.3451 71.6136 48.2005 75.0183 45.7633 77.0985C43.2333 79.2574 38.7497 77.7806 38.7497 74.8683C38.7497 74.4894 38.5992 74.126 38.3313 73.8581C38.0634 73.5902 37.7 73.4397 37.3211 73.4397C36.9422 73.4397 36.5789 73.5902 36.311 73.8581C36.0431 74.126 35.8925 74.4894 35.8925 74.8683C35.8925 77.9536 38.4026 80.2946 41.3803 80.8494V83.3538C41.3803 83.7327 41.5308 84.0961 41.7987 84.364C42.0666 84.6319 42.4299 84.7824 42.8088 84.7824C43.1877 84.7824 43.5511 84.6319 43.819 84.364C44.0869 84.0961 44.2374 83.7327 44.2374 83.3538V80.8494C47.2153 80.2946 49.7249 77.9536 49.7249 74.8683C49.7249 71.2999 46.4035 68.7557 42.8088 68.7557C39.2731 68.7557 37.4177 65.3509 39.8549 63.2707C42.3851 61.1111 46.8678 62.5879 46.8678 65.5002C46.8678 65.8791 47.0183 66.2424 47.2862 66.5103C47.5541 66.7783 47.9175 66.9288 48.2964 66.9288C48.6752 66.9288 49.0386 66.7783 49.3065 66.5103C49.5744 66.2424 49.7249 65.8791 49.7249 65.5002H49.7255ZM42.8094 48.7599C38.572 48.7599 34.4298 50.0164 30.9066 52.3705C27.3833 54.7246 24.6373 58.0706 23.0157 61.9854C21.3941 65.9002 20.9698 70.208 21.7964 74.3639C22.6231 78.5198 24.6635 82.3373 27.6598 85.3336C30.656 88.3299 34.4735 90.3704 38.6294 91.197C42.7854 92.0237 47.0931 91.5995 51.0079 89.9779C54.9227 88.3563 58.2688 85.6103 60.6229 82.0871C62.9771 78.5639 64.2336 74.4217 64.2336 70.1843C64.2335 64.5023 61.9763 59.053 57.9585 55.0352C53.9407 51.0173 48.4914 48.7601 42.8094 48.7599ZM55.9384 57.0551C53.3417 54.4584 50.0333 52.69 46.4315 51.9736C42.8298 51.2572 39.0965 51.6248 35.7038 53.0302C32.311 54.4355 29.4111 56.8153 27.3709 59.8687C25.3307 62.9221 24.2417 66.5119 24.2417 70.1842C24.2417 73.8565 25.3307 77.4464 27.3709 80.4998C29.4111 83.5531 32.311 85.933 35.7038 87.3383C39.0965 88.7436 42.8298 89.1113 46.4315 88.3949C50.0333 87.6784 53.3417 85.91 55.9384 83.3133C59.4203 79.8312 61.3764 75.1086 61.3764 70.1842C61.3764 65.2599 59.4203 60.5373 55.9384 57.0551ZM68.7618 70.1843C68.7618 65.0514 67.2397 60.0338 64.3881 55.7659C61.5364 51.4981 57.4832 48.1717 52.741 46.2074C47.9988 44.2431 42.7806 43.7292 37.7464 44.7305C32.7121 45.7319 28.0878 48.2036 24.4583 51.8331C20.8288 55.4626 18.357 60.0869 17.3556 65.1211C16.3542 70.1554 16.8681 75.3736 18.8324 80.1158C20.7966 84.858 24.123 88.9112 28.3908 91.7629C32.6587 94.6146 37.6763 96.1367 42.8092 96.1368C46.2173 96.1368 49.5921 95.4656 52.7408 94.1614C55.8896 92.8571 58.7506 90.9455 61.1605 88.5356C63.5704 86.1257 65.4821 83.2647 66.7863 80.116C68.0906 76.9672 68.7618 73.5925 68.7618 70.1843ZM55.3332 96.1366H94.4187C94.8753 96.1345 95.3126 95.9522 95.6355 95.6293C95.9583 95.3065 96.1407 94.8692 96.1428 94.4127V87.0273C96.1407 86.5707 95.9583 86.1334 95.6355 85.8106C95.3126 85.4877 94.8753 85.3054 94.4187 85.3033H67.3368C64.4466 89.9821 60.2824 93.7401 55.3325 96.1366H55.3332Z" fill="#1E374A"/>
</svg>
