<svg width="113" height="113" viewBox="0 0 113 113" fill="none" xmlns="http://www.w3.org/2000/svg">
<rect width="113" height="113" rx="12" fill="white" fill-opacity="0.2"/>
<path d="M95.1059 90.2072H92.2407V67.9347C94.9934 68.4333 96.087 70.4431 96.1479 70.559C96.3025 70.8577 96.5687 71.0833 96.8887 71.1868C97.2087 71.2903 97.5566 71.2635 97.8569 71.112C98.1572 70.9606 98.3856 70.6968 98.4925 70.3779C98.5995 70.059 98.5763 69.7108 98.4281 69.409C98.3574 69.2674 96.9089 66.4603 93.3069 65.5517C95.0819 64.0809 97.7582 63.9324 97.7924 63.9307C98.1301 63.9156 98.4481 63.7671 98.6765 63.5179C98.9049 63.2686 99.0252 62.939 99.0109 62.6012C98.9811 61.8965 98.3788 61.3458 97.6812 61.3793C97.5156 61.3863 94.7809 61.5251 92.4519 63.0174C91.9309 59.5338 89.3987 57.7951 89.2577 57.7013C88.6708 57.31 87.8739 57.4658 87.4829 58.0527C87.0917 58.6395 87.246 59.4295 87.8329 59.8206C87.9238 59.8835 89.5123 61.0143 89.8987 63.3093C87.4917 61.5443 84.4228 61.3868 84.2469 61.3795C83.5475 61.346 82.9507 61.8947 82.9191 62.598C82.8875 63.3011 83.4326 63.8974 84.1358 63.9309C84.1699 63.9324 86.8462 64.0811 88.6212 65.5519C85.0192 66.4605 83.5708 69.2674 83.5001 69.4091C83.1847 70.0399 83.4379 70.8117 84.0686 71.127C84.2466 71.2163 84.4429 71.2629 84.642 71.263C84.8781 71.2634 85.1097 71.1979 85.3107 71.0738C85.5116 70.9497 85.674 70.772 85.7794 70.5607C85.8306 70.4628 86.9213 68.4365 89.6868 67.9352V90.2076H81.4221V52.7673C81.4221 52.4287 81.2876 52.1039 81.0481 51.8644C80.8086 51.6249 80.4838 51.4904 80.1451 51.4904C79.8065 51.4904 79.4817 51.6249 79.2422 51.8644C79.0027 52.1039 78.8682 52.4287 78.8682 52.7673V90.2074H69.1945V71.6137C69.1945 71.275 69.06 70.9502 68.8205 70.7108C68.581 70.4713 68.2562 70.3367 67.9176 70.3367H45.0823C44.7436 70.3368 44.4188 70.4713 44.1794 70.7108C43.9399 70.9503 43.8054 71.275 43.8053 71.6137V78.9951C43.8108 79.3302 43.9477 79.6497 44.1866 79.8847C44.4255 80.1197 44.7472 80.2514 45.0823 80.2514C45.4174 80.2514 45.7391 80.1197 45.9779 79.8847C46.2168 79.6497 46.3538 79.3302 46.3592 78.9951V72.8907H55.2225V90.2072H46.3592V84.1026C46.3592 83.7639 46.2247 83.4391 45.9852 83.1997C45.7457 82.9602 45.4209 82.8257 45.0823 82.8257C44.7436 82.8257 44.4188 82.9602 44.1793 83.1997C43.9398 83.4391 43.8053 83.7639 43.8053 84.1026V90.2072H34.1317V35.4961C34.1317 35.3284 34.0986 35.1624 34.0345 35.0075C33.9703 34.8525 33.8762 34.7118 33.7576 34.5932C33.6391 34.4746 33.4983 34.3805 33.3434 34.3164C33.1884 34.2522 33.0224 34.2192 32.8547 34.2192C32.687 34.2192 32.5209 34.2522 32.366 34.3164C32.2111 34.3805 32.0703 34.4746 31.9517 34.5932C31.8332 34.7118 31.7391 34.8525 31.6749 35.0075C31.6108 35.1624 31.5777 35.3284 31.5777 35.4961V90.2072H23.3132V67.9349C26.0672 68.434 27.1603 70.4457 27.2199 70.5592C27.3728 70.8596 27.6382 71.0873 27.9584 71.1928C28.2785 71.2983 28.6273 71.2728 28.9288 71.1221C29.2317 70.9707 29.4621 70.7051 29.5692 70.3838C29.6763 70.0625 29.6514 69.7119 29.4999 69.409C29.4292 69.2674 27.9808 66.4603 24.3788 65.5517C26.1538 64.0809 28.8301 63.9324 28.8644 63.9307C29.2022 63.9156 29.5201 63.7671 29.7485 63.5179C29.977 63.2686 30.0972 62.939 30.0829 62.6012C30.0532 61.8967 29.4578 61.3472 28.7533 61.3793C28.5774 61.3866 25.5085 61.5443 23.1015 63.3091C23.4862 61.0237 25.0633 59.8927 25.1661 59.8213C25.4421 59.6304 25.6318 59.3384 25.6943 59.0086C25.7567 58.6789 25.6868 58.3378 25.4997 58.0592C25.3126 57.7805 25.0233 57.5868 24.6944 57.5198C24.3655 57.4529 24.0235 57.5181 23.7423 57.7013C23.6014 57.7951 21.0693 59.5338 20.5481 63.0174C18.2192 61.5251 15.4844 61.3863 15.3188 61.3793C14.6158 61.3475 14.0226 61.8947 13.991 62.5978C13.9594 63.301 14.5045 63.8972 15.2076 63.9307C15.2418 63.9322 17.918 64.0809 19.6932 65.5517C16.0912 66.4603 14.6428 69.2673 14.5721 69.409C14.494 69.5593 14.4466 69.7236 14.4326 69.8924C14.4187 70.0612 14.4384 70.2311 14.4907 70.3922C14.543 70.5532 14.6269 70.7023 14.7373 70.8307C14.8478 70.9591 14.9827 71.0642 15.1342 71.1399C15.2857 71.2157 15.4508 71.2605 15.6198 71.2718C15.7888 71.2832 15.9583 71.2608 16.1186 71.206C16.2788 71.1511 16.4266 71.065 16.5532 70.9525C16.6798 70.84 16.7828 70.7035 16.8562 70.5508C16.8681 70.5269 17.9442 68.4435 20.7593 67.9349V90.2072H17.8941C15.1954 90.2072 13 92.4028 13 95.1059C13 97.8046 15.1954 100 17.8941 100H95.1059C97.8044 100 100 97.8046 100 95.1015C100 92.4028 97.8044 90.2072 95.1059 90.2072ZM57.777 72.8907H66.6408V90.2072H57.777V72.8907ZM95.1059 97.4462H17.8941C16.6037 97.4462 15.5538 96.3965 15.5538 95.1015C15.5538 93.8111 16.6035 92.7612 17.8941 92.7612H95.1059C96.3965 92.7612 97.4462 93.8111 97.4462 95.1059C97.4462 96.3963 96.3965 97.4462 95.1059 97.4462ZM31.5772 22.7708H31.5779V30.3884C31.5834 30.7235 31.7203 31.043 31.9592 31.278C32.1981 31.513 32.5198 31.6447 32.8549 31.6447C33.19 31.6447 33.5117 31.513 33.7505 31.278C33.9894 31.043 34.1264 30.7235 34.1318 30.3884V22.7708H78.8683V47.6596C78.8683 47.9983 79.0029 48.3231 79.2424 48.5626C79.4818 48.8021 79.8066 48.9366 80.1453 48.9366C80.484 48.9366 80.8088 48.8021 81.0483 48.5626C81.2877 48.3231 81.4223 47.9983 81.4223 47.6596V22.7708H81.423C83.0658 22.7708 84.4024 21.4342 84.4024 19.7914V15.9794C84.4024 14.3366 83.0658 13 81.4228 13H31.5772C29.9344 13 28.5978 14.3366 28.5978 15.9794V19.7914C28.5976 21.4344 29.9342 22.7708 31.5772 22.7708ZM31.1516 15.9794C31.1517 15.8666 31.1966 15.7584 31.2764 15.6786C31.3562 15.5988 31.4644 15.5539 31.5772 15.5538H81.4228C81.5356 15.5539 81.6438 15.5988 81.7236 15.6786C81.8034 15.7584 81.8483 15.8666 81.8484 15.9794V19.7914C81.8483 19.9043 81.8034 20.0125 81.7236 20.0923C81.6438 20.1721 81.5356 20.217 81.4228 20.2171H31.5772C31.4644 20.217 31.3562 20.1721 31.2764 20.0923C31.1966 20.0125 31.1517 19.9043 31.1516 19.7914V15.9794Z" fill="#1E374A"/>
<path d="M59.0767 55.9274H53.9262C52.7527 55.9274 51.7981 56.882 51.7981 58.0555V63.206C51.7981 64.3795 52.7527 65.3341 53.9262 65.3341H59.0767C60.2502 65.3341 61.2048 64.3795 61.2048 63.206V58.0555C61.2048 56.882 60.2502 55.9274 59.0767 55.9274ZM58.6511 62.7805H54.3519V58.4813H58.6511V62.7805ZM46.396 55.9274H41.2455C40.072 55.9274 39.1172 56.882 39.1172 58.0555V63.206C39.1172 64.3795 40.0718 65.3341 41.2455 65.3341H46.396C47.5694 65.3341 48.5241 64.3795 48.5241 63.206V58.0555C48.5241 56.882 47.5694 55.9274 46.396 55.9274ZM45.9703 62.7805H41.6711V58.4813H45.9703V62.7805ZM71.7575 55.9274H66.607C65.4335 55.9274 64.4789 56.882 64.4789 58.0555V63.206C64.4789 64.3795 65.4335 65.3341 66.607 65.3341H71.7575C72.931 65.3341 73.8856 64.3795 73.8856 63.206V58.0555C73.8856 56.882 72.931 55.9274 71.7575 55.9274ZM71.3318 62.7805H67.0326V58.4813H71.3318V62.7805ZM61.2048 44.2109C61.2048 43.0375 60.2502 42.0828 59.0767 42.0828H53.9262C52.7527 42.0828 51.7981 43.0375 51.7981 44.2109V49.3614C51.7981 50.5349 52.7527 51.4895 53.9262 51.4895H59.0767C60.2502 51.4895 61.2048 50.5349 61.2048 49.3614V44.2109ZM58.6511 48.936H54.3519V44.6368H58.6511V48.936ZM48.5241 44.2109C48.5241 43.0375 47.5694 42.0828 46.396 42.0828H41.2455C40.072 42.0828 39.1172 43.0375 39.1172 44.2109V49.3614C39.1172 50.5349 40.0718 51.4895 41.2455 51.4895H46.396C47.5694 51.4895 48.5241 50.5349 48.5241 49.3614V44.2109ZM45.9703 48.936H41.6711V44.6368H45.9703V48.936ZM73.8856 44.2109C73.8856 43.0375 72.931 42.0828 71.7575 42.0828H66.607C65.4335 42.0828 64.4789 43.0375 64.4789 44.2109V49.3614C64.4789 50.5349 65.4335 51.4895 66.607 51.4895H71.7575C72.931 51.4895 73.8856 50.5349 73.8856 49.3614V44.2109ZM71.3318 48.936H67.0326V44.6368H71.3318V48.936ZM61.2048 30.3664C61.2048 29.1929 60.2502 28.2383 59.0767 28.2383H53.9262C52.7527 28.2383 51.7981 29.1929 51.7981 30.3664V35.5169C51.7981 36.6904 52.7527 37.645 53.9262 37.645H59.0767C60.2502 37.645 61.2048 36.6904 61.2048 35.5169V30.3664ZM58.6511 35.0912H54.3519V30.792H58.6511V35.0912ZM48.5241 30.3664C48.5241 29.1929 47.5694 28.2383 46.396 28.2383H41.2455C40.072 28.2383 39.1172 29.1929 39.1172 30.3664V35.5169C39.1172 36.6904 40.0718 37.645 41.2455 37.645H46.396C47.5694 37.645 48.5241 36.6904 48.5241 35.5169V30.3664ZM45.9703 35.0912H41.6711V30.792H45.9703V35.0912ZM73.8856 30.3664C73.8856 29.1929 72.931 28.2383 71.7575 28.2383H66.607C65.4335 28.2383 64.4789 29.1929 64.4789 30.3664V35.5169C64.4789 36.6904 65.4335 37.645 66.607 37.645H71.7575C72.931 37.645 73.8856 36.6904 73.8856 35.5169V30.3664ZM71.3318 35.0912H67.0326V30.792H71.3318V35.0912Z" fill="#1E374A"/>
</svg>
