<svg width="113" height="113" viewBox="0 0 113 113" fill="none" xmlns="http://www.w3.org/2000/svg">
<rect width="113" height="113" rx="12" fill="white" fill-opacity="0.2"/>
<path d="M58.4422 46.7231C57.802 46.5956 57.1508 46.5314 56.498 46.5312C51.0023 46.5312 46.5312 51.0023 46.5312 56.498C46.5312 61.9938 51.0023 66.4648 56.498 66.4648C61.9938 66.4648 66.4648 61.9938 66.4648 56.498C66.4648 55.8329 66.398 55.1829 66.273 54.5539L60.4135 60.4134C59.3675 61.4593 57.9771 62.0352 56.498 62.0352C55.019 62.0352 53.6286 61.4593 52.5827 60.4134C51.5368 59.3675 50.9609 57.9771 50.9609 56.498C50.9609 55.019 51.5368 53.6286 52.5827 52.5827L58.4422 46.7231Z" fill="#1E374A"/>
<path d="M85.181 43.4802L81.2098 47.4513C80.8184 47.8434 80.3705 48.1748 79.8809 48.4342C80.7556 50.9639 81.2324 53.6773 81.2324 56.5C81.2324 70.1375 70.1375 81.2324 56.5 81.2324C42.8625 81.2324 31.7676 70.1375 31.7676 56.5C31.7676 42.8625 42.8625 31.7676 56.5 31.7676C59.3239 31.7676 62.0386 32.2449 64.5687 33.1201C64.8272 32.6301 65.1577 32.1817 65.5492 31.7897L69.52 27.819C65.5492 26.0094 61.1406 25 56.5 25C39.1307 25 25 39.1307 25 56.5C25 73.8693 39.1307 88 56.5 88C73.8693 88 88 73.8693 88 56.5C88 51.8593 86.9906 47.4508 85.181 43.48V43.4802Z" fill="#1E374A"/>
<path d="M64.3413 40.8317L64.005 36.8442C61.6732 35.9507 59.1441 35.4609 56.502 35.4609C44.8999 35.4609 35.4609 44.8999 35.4609 56.502C35.4609 68.104 44.8999 77.543 56.502 77.543C68.104 77.543 77.543 68.104 77.543 56.502C77.543 53.8598 77.0532 51.3307 76.1597 48.9989L72.1722 48.6625L69.2454 51.5887C69.8357 53.1145 70.1602 54.7707 70.1602 56.502C70.1602 64.0333 64.0333 70.1602 56.502 70.1602C48.9706 70.1602 42.8438 64.0333 42.8438 56.502C42.8438 48.9706 48.9706 42.8438 56.502 42.8438C58.2332 42.8438 59.8896 43.1682 61.4152 43.7585L64.3413 40.8317Z" fill="#1E374A"/>
<path d="M67.6266 35.8588L68.164 42.2265L55.197 55.1936C54.476 55.914 54.476 57.083 55.197 57.8034C55.557 58.1639 56.0295 58.3442 56.502 58.3442C56.9745 58.3442 57.447 58.1639 57.8069 57.8034L70.7739 44.8365L77.1416 45.3733C77.4092 45.3959 77.6785 45.3598 77.9307 45.2676C78.1829 45.1753 78.4119 45.0292 78.6018 44.8393L86.4321 37.0086C86.681 36.7599 86.8536 36.4452 86.9296 36.1017C87.0055 35.7582 86.9817 35.4001 86.8609 35.0696C86.7401 34.7392 86.5272 34.4502 86.2476 34.2367C85.9679 34.0232 85.633 33.8941 85.2824 33.8646L79.6136 33.3863L79.1358 27.7181C79.1062 27.3675 78.9771 27.0326 78.7636 26.753C78.5501 26.4734 78.2611 26.2606 77.9306 26.1397C77.6002 26.0188 77.2421 25.9949 76.8986 26.0707C76.555 26.1466 76.2403 26.3191 75.9915 26.5678L68.1611 34.3985C67.9712 34.5884 67.8249 34.8174 67.7326 35.0696C67.6403 35.3219 67.6041 35.5912 67.6266 35.8588Z" fill="#1E374A"/>
</svg>
