<svg width="41" height="41" viewBox="0 0 41 41" fill="none" xmlns="http://www.w3.org/2000/svg">
<path d="M21.7672 14.1405C21.3505 14.0575 20.9268 14.0157 20.502 14.0156C16.9253 14.0156 14.0156 16.9253 14.0156 20.502C14.0156 24.0786 16.9253 26.9883 20.502 26.9883C24.0786 26.9883 26.9883 24.0786 26.9883 20.502C26.9883 20.0691 26.9448 19.6461 26.8634 19.2367L23.0501 23.05C22.3694 23.7307 21.4645 24.1055 20.502 24.1055C19.5394 24.1055 18.6345 23.7307 17.9539 23.05C17.2732 22.3694 16.8984 21.4645 16.8984 20.502C16.8984 19.5394 17.2732 18.6345 17.9539 17.9539L21.7672 14.1405Z" fill="#4D6075"/>
<path d="M39.1654 12.0268L36.581 14.6111C36.3263 14.8664 36.0347 15.082 35.7161 15.2508C36.2854 16.8971 36.5957 18.663 36.5957 20.5C36.5957 29.3752 29.3752 36.5957 20.5 36.5957C11.6248 36.5957 4.4043 29.3752 4.4043 20.5C4.4043 11.6248 11.6248 4.4043 20.5 4.4043C22.3378 4.4043 24.1045 4.71492 25.751 5.28452C25.9193 4.96563 26.1344 4.67378 26.3892 4.41871L28.9733 1.83459C26.3892 0.656881 23.5201 0 20.5 0C9.19617 0 0 9.19617 0 20.5C0 31.8038 9.19617 41 20.5 41C31.8038 41 41 31.8038 41 20.5C41 17.4799 40.3431 14.6108 39.1654 12.0267V12.0268Z" fill="#4D6075"/>
<path d="M25.5998 10.2999L25.381 7.70493C23.8635 7.1234 22.2176 6.80469 20.498 6.80469C12.9475 6.80469 6.80469 12.9475 6.80469 20.498C6.80469 28.0486 12.9475 34.1914 20.498 34.1914C28.0486 34.1914 34.1914 28.0486 34.1914 20.498C34.1914 18.7785 33.8727 17.1326 33.2912 15.6151L30.6962 15.3962L28.7914 17.3005C29.1756 18.2935 29.3867 19.3713 29.3867 20.498C29.3867 25.3994 25.3994 29.3867 20.498 29.3867C15.5967 29.3867 11.6094 25.3994 11.6094 20.498C11.6094 15.5967 15.5967 11.6094 20.498 11.6094C21.6247 11.6094 22.7027 11.8205 23.6956 12.2047L25.5998 10.2999Z" fill="#4D6075"/>
<path d="M27.7379 7.06625L28.0876 11.2103L19.6488 19.6492C19.1796 20.118 19.1796 20.8788 19.6488 21.3476C19.883 21.5822 20.1905 21.6996 20.498 21.6996C20.8055 21.6996 21.113 21.5822 21.3473 21.3476L29.7861 12.9088L33.9302 13.2582C34.1043 13.2729 34.2796 13.2494 34.4437 13.1894C34.6078 13.1293 34.7569 13.0342 34.8805 12.9107L39.9764 7.8145C40.1384 7.65265 40.2507 7.44787 40.3001 7.2243C40.3496 7.00073 40.3341 6.76768 40.2555 6.55263C40.1768 6.33758 40.0383 6.1495 39.8563 6.01055C39.6743 5.87161 39.4563 5.7876 39.2282 5.76842L35.539 5.45716L35.228 1.76828C35.2088 1.54011 35.1247 1.3222 34.9858 1.14022C34.8468 0.958229 34.6587 0.819746 34.4437 0.741083C34.2287 0.66242 33.9956 0.646853 33.772 0.696217C33.5485 0.745581 33.3436 0.857818 33.1817 1.01971L28.0858 6.11588C27.9621 6.23944 27.8669 6.38849 27.8069 6.55264C27.7468 6.71679 27.7233 6.89207 27.7379 7.06625Z" fill="#4D6075"/>
</svg>
