<svg width="38" height="1126" viewBox="0 0 38 1126" fill="none" xmlns="http://www.w3.org/2000/svg">
<g clip-path="url(#clip0_596_4297)">
<path d="M14.9099 33.6628L0 18.6328V48.4528L14.9099 33.6628Z" fill="#4E6075"/>
<path d="M14.9099 100.741L0 85.7109V115.521L14.9099 100.741Z" fill="#4E6075"/>
<path d="M14.9099 137.997L0 122.977V152.787L14.9099 137.997Z" fill="#4E6075"/>
<path d="M22.3594 48.5591L37.2694 33.5391V63.3491L22.3594 48.5591Z" fill="#4E6075"/>
<path d="M22.3594 85.8325L37.2694 70.8125V100.623L22.3594 85.8325Z" fill="#4E6075"/>
<path d="M14.9099 205.082L0 190.062V219.872L14.9099 205.082Z" fill="#4E6075"/>
<path d="M14.9099 242.34L0 227.32V257.13L14.9099 242.34Z" fill="#4E6075"/>
<path d="M22.3594 152.913L37.2694 137.883V167.703L22.3594 152.913Z" fill="#4E6075"/>
<path d="M22.3594 190.168L37.2694 175.148V204.958L22.3594 190.168Z" fill="#4E6075"/>
<path d="M14.9099 309.418L0 294.398V324.208L14.9099 309.418Z" fill="#4E6075"/>
<path d="M14.9099 346.686L0 331.656V361.476L14.9099 346.686Z" fill="#4E6075"/>
<path d="M22.3594 257.247L37.2694 242.227V272.037L22.3594 257.247Z" fill="#4E6075"/>
<path d="M22.3594 294.522L37.2694 279.492V309.302L22.3594 294.522Z" fill="#4E6075"/>
<path d="M14.9099 413.772L0 398.742V428.552L14.9099 413.772Z" fill="#4E6075"/>
<path d="M14.9099 451.028L0 436.008V465.818L14.9099 451.028Z" fill="#4E6075"/>
<path d="M22.3594 361.59L37.2694 346.57V376.38L22.3594 361.59Z" fill="#4E6075"/>
<path d="M22.3594 398.864L37.2694 383.844V413.654L22.3594 398.864Z" fill="#4E6075"/>
<path d="M14.9099 518.114L0 503.094V532.904L14.9099 518.114Z" fill="#4E6075"/>
<path d="M14.9099 555.372L0 540.352V570.162L14.9099 555.372Z" fill="#4E6075"/>
<path d="M22.3594 465.936L37.2694 450.906V480.726L22.3594 465.936Z" fill="#4E6075"/>
<path d="M22.3594 503.2L37.2694 488.18V517.99L22.3594 503.2Z" fill="#4E6075"/>
<path d="M14.9099 622.45L0 607.43V637.24L14.9099 622.45Z" fill="#4E6075"/>
<path d="M14.9099 659.718L0 644.688V674.508L14.9099 659.718Z" fill="#4E6075"/>
<path d="M22.3594 570.278L37.2694 555.258V585.068L22.3594 570.278Z" fill="#4E6075"/>
<path d="M22.3594 607.553L37.2694 592.523V622.333L22.3594 607.553Z" fill="#4E6075"/>
<path d="M14.9099 726.803L0 711.773V741.583L14.9099 726.803Z" fill="#4E6075"/>
<path d="M14.9099 764.059L0 749.039V778.849L14.9099 764.059Z" fill="#4E6075"/>
<path d="M22.3594 674.622L37.2694 659.602V689.412L22.3594 674.622Z" fill="#4E6075"/>
<path d="M22.3594 711.887L37.2694 696.867V726.677L22.3594 711.887Z" fill="#4E6075"/>
<path d="M14.9099 831.139L0 816.109V845.929L14.9099 831.139Z" fill="#4E6075"/>
<path d="M14.9099 868.403L0 853.383V883.193L14.9099 868.403Z" fill="#4E6075"/>
<path d="M22.3594 778.968L37.2694 763.938V793.758L22.3594 778.968Z" fill="#4E6075"/>
<path d="M22.3594 816.231L37.2694 801.211V831.021L22.3594 816.231Z" fill="#4E6075"/>
<path d="M14.9099 935.481L0 920.461V950.271L14.9099 935.481Z" fill="#4E6075"/>
<path d="M14.9099 972.749L0 957.719V987.539L14.9099 972.749Z" fill="#4E6075"/>
<path d="M22.3594 883.309L37.2694 868.289V898.099L22.3594 883.309Z" fill="#4E6075"/>
<path d="M22.3594 920.577L37.2694 905.547V935.357L22.3594 920.577Z" fill="#4E6075"/>
<path d="M14.9099 1039.83L0 1024.8V1054.61L14.9099 1039.83Z" fill="#4E6075"/>
<path d="M14.9099 1077.09L0 1062.07V1091.88L14.9099 1077.09Z" fill="#4E6075"/>
<path d="M22.3594 987.653L37.2694 972.633V1002.44L22.3594 987.653Z" fill="#4E6075"/>
<path d="M22.3594 1024.92L37.2694 1009.9V1039.71L22.3594 1024.92Z" fill="#4E6075"/>
<path d="M22.3594 1092L37.2694 1076.97V1106.79L22.3594 1092Z" fill="#4E6075"/>
<path d="M37.2694 15.03L22.3594 0V29.81L37.2694 15.03Z" fill="#D69030"/>
<path d="M37.2694 119.374L22.3594 104.344V134.164L37.2694 119.374Z" fill="#D69030"/>
<path d="M0 67.2019L14.9099 52.1719V81.9919L0 67.2019Z" fill="#D69030"/>
<path d="M37.2694 223.708L22.3594 208.688V238.497L37.2694 223.708Z" fill="#D69030"/>
<path d="M0 171.543L14.9099 156.523V186.333L0 171.543Z" fill="#D69030"/>
<path d="M37.2694 328.061L22.3594 313.031V342.841L37.2694 328.061Z" fill="#D69030"/>
<path d="M0 275.879L14.9099 260.859V290.669L0 275.879Z" fill="#D69030"/>
<path d="M37.2694 432.397L22.3594 417.367V447.187L37.2694 432.397Z" fill="#D69030"/>
<path d="M0 380.233L14.9099 365.203V395.023L0 380.233Z" fill="#D69030"/>
<path d="M37.2694 536.739L22.3594 521.719V551.529L37.2694 536.739Z" fill="#D69030"/>
<path d="M0 484.567L14.9099 469.547V499.357L0 484.567Z" fill="#D69030"/>
<path d="M37.2694 641.093L22.3594 626.062V655.872L37.2694 641.093Z" fill="#D69030"/>
<path d="M0 588.911L14.9099 573.891V603.701L0 588.911Z" fill="#D69030"/>
<path d="M37.2694 745.428L22.3594 730.398V760.218L37.2694 745.428Z" fill="#D69030"/>
<path d="M0 693.257L14.9099 678.227V708.037L0 693.257Z" fill="#D69030"/>
<path d="M37.2694 849.77L22.3594 834.75V864.56L37.2694 849.77Z" fill="#D69030"/>
<path d="M0 797.598L14.9099 782.578V812.388L0 797.598Z" fill="#D69030"/>
<path d="M37.2694 954.114L22.3594 939.094V968.904L37.2694 954.114Z" fill="#D69030"/>
<path d="M0 901.942L14.9099 886.922V916.732L0 901.942Z" fill="#D69030"/>
<path d="M37.2694 1058.46L22.3594 1043.43V1073.25L37.2694 1058.46Z" fill="#D69030"/>
<path d="M0 1006.29L14.9099 991.258V1021.07L0 1006.29Z" fill="#D69030"/>
<path d="M0 1110.63L14.9099 1095.61V1125.42L0 1110.63Z" fill="#D69030"/>
</g>
<defs>
<clipPath id="clip0_596_4297">
<rect width="37.271" height="1125.42" fill="white"/>
</clipPath>
</defs>
</svg>
