<svg width="34" height="34" viewBox="0 0 34 34" fill="none" xmlns="http://www.w3.org/2000/svg">
<path d="M20.2578 17C20.2578 18.7972 18.801 20.2539 17.0039 20.2539C15.2068 20.2539 13.75 18.7971 13.75 17C13.75 15.2029 15.2068 13.7461 17.0039 13.7461C18.801 13.7461 20.2578 15.2029 20.2578 17Z" fill="white"/>
<path d="M24.6128 11.2418C24.4563 10.8177 24.2068 10.4342 23.8826 10.1193C23.5677 9.79502 23.1842 9.5455 22.7601 9.38909C22.4161 9.25554 21.8995 9.0965 20.9477 9.0532C19.9181 9.00625 19.6095 8.99609 17.003 8.99609C14.3963 8.99609 14.0876 9.00599 13.0584 9.05294C12.1066 9.0965 11.5896 9.25548 11.2459 9.38909C10.8218 9.54544 10.4383 9.79497 10.1235 10.1193C9.7992 10.4342 9.5496 10.8177 9.39299 11.2418C9.25945 11.5857 9.10041 12.1027 9.05711 13.0544C9.01016 14.0837 9 14.3924 9 16.9991C9 19.6056 9.01016 19.9142 9.05711 20.9438C9.10041 21.8955 9.25945 22.4123 9.39299 22.7562C9.5495 23.1802 9.79901 23.5637 10.1232 23.8787C10.438 24.2029 10.8216 24.4525 11.2457 24.6089C11.5896 24.7427 12.1066 24.9017 13.0584 24.945C14.0876 24.992 14.396 25.0019 17.0028 25.0019C19.6097 25.0019 19.9184 24.992 20.9474 24.945C21.8991 24.9017 22.4162 24.7427 22.7601 24.6089C23.1811 24.4465 23.5635 24.1977 23.8825 23.8786C24.2016 23.5596 24.4504 23.1772 24.6128 22.7562C24.7463 22.4122 24.9054 21.8956 24.9489 20.9438C24.9959 19.9142 25.0058 19.6056 25.0058 16.9991C25.0058 14.3924 24.9959 14.0837 24.9489 13.0544C24.9056 12.1027 24.7466 11.5857 24.6128 11.2418ZM17.003 22.0115C14.2345 22.0115 11.9901 19.7674 11.9901 16.9988C11.9901 14.2303 14.2345 11.9862 17.003 11.9862C19.7714 11.9862 22.0156 14.2303 22.0156 16.9988C22.0156 19.7674 19.7714 22.0115 17.003 22.0115ZM22.2138 12.9595C21.5669 12.9595 21.0424 12.4349 21.0424 11.7881C21.0424 11.1412 21.5669 10.6166 22.2138 10.6166C22.8608 10.6166 23.3853 11.1411 23.3853 11.788C23.385 12.4349 22.8608 12.9595 22.2138 12.9595Z" fill="white"/>
<path d="M17 0C7.61261 0 0 7.61261 0 17C0 26.3874 7.61261 34 17 34C26.3874 34 34 26.3874 34 17C34 7.61261 26.3874 0 17 0ZM26.7028 21.0246C26.6557 22.0637 26.4904 22.7732 26.2491 23.3942C25.9983 24.0427 25.6148 24.6316 25.1232 25.1232C24.6316 25.6148 24.0427 25.9983 23.3942 26.2491C22.7734 26.4904 22.0637 26.6553 21.0248 26.7028C19.9839 26.7503 19.6513 26.7617 17.0003 26.7617C14.3489 26.7617 14.0166 26.7503 12.9754 26.7028C11.9365 26.6553 11.2268 26.4904 10.606 26.2491C9.95457 26.0041 9.36448 25.6198 8.87692 25.1231C8.38039 24.6355 7.99619 24.0455 7.75114 23.3942C7.50988 22.7734 7.34466 22.0637 7.29745 21.0248C7.24944 19.9836 7.23828 19.6511 7.23828 17C7.23828 14.3489 7.24944 14.0164 7.29718 12.9754C7.34433 11.9363 7.50935 11.2268 7.75061 10.6058C7.99574 9.95442 8.3801 9.36439 8.87686 8.87692C9.36435 8.38021 9.95441 7.99592 10.6058 7.75087C11.2268 7.50962 11.9363 7.34466 12.9754 7.29718C14.0164 7.2497 14.3489 7.23828 17 7.23828C19.6511 7.23828 19.9836 7.2497 21.0246 7.29738C22.0637 7.34466 22.7732 7.50962 23.3942 7.75061C24.0456 7.99579 24.6358 8.38014 25.1234 8.87686C25.62 9.36442 26.0041 9.95446 26.2491 10.6058C26.4906 11.2268 26.6556 11.9363 26.7031 12.9754C26.7506 14.0164 26.7617 14.3489 26.7617 17C26.7617 19.6511 26.7506 19.9836 26.7028 21.0246Z" fill="white"/>
</svg>
