<svg width="41" height="41" viewBox="0 0 41 41" fill="none" xmlns="http://www.w3.org/2000/svg">
<path d="M33.0495 38.8327C33.4085 38.8325 33.7535 38.9718 34.0117 39.2213C35.6985 40.8501 38.159 41.3924 40.3463 40.7136C38.9386 37.781 38.7436 34.4212 39.8344 31.3104C41.1883 27.4399 41.5275 23.5606 39.9868 19.6698C38.6332 16.2519 36.021 13.4123 32.7152 11.793C32.9192 12.883 33.0216 13.9895 33.021 15.0984C33.0211 19.8373 31.1989 24.2943 27.8903 27.6486C24.5812 31.0033 20.1455 32.8896 15.4004 32.9601C14.5222 32.9737 13.6442 32.9227 12.7734 32.8077C15.3813 37.3789 20.2997 40.3561 25.7044 40.4362C28.0687 40.4728 30.3388 39.9774 32.4529 38.9678C32.6392 38.8788 32.843 38.8326 33.0495 38.8327Z" fill="#4D6075"/>
<path d="M15.4356 0.0030125C7.01784 -0.164133 0.0203427 6.64572 4.56442e-05 15.0617C-0.00492713 17.1179 0.396447 19.1114 1.1931 20.9873C1.20467 21.0146 1.21543 21.0422 1.22517 21.0702C2.31604 24.181 2.12108 27.5407 0.713283 30.4734C2.90079 31.1519 5.361 30.6099 7.04788 28.981C7.25092 28.7849 7.50904 28.6556 7.78764 28.6103C8.06624 28.565 8.35202 28.606 8.60669 28.7277C10.7205 29.7372 12.991 30.2341 15.3551 30.1962C23.7071 30.0721 30.2493 23.4406 30.2492 15.0988C30.2493 6.93911 23.6039 0.167215 15.4356 0.0030125ZM7.05702 17.3538C5.84762 17.3538 4.86717 16.375 4.86717 15.1676C4.86717 13.9603 5.84762 12.9814 7.05702 12.9814C8.26641 12.9814 9.24686 13.9603 9.24686 15.1676C9.24676 16.375 8.26641 17.3538 7.05702 17.3538ZM15.1247 17.3538C13.9153 17.3538 12.9348 16.375 12.9348 15.1676C12.9348 13.9603 13.9153 12.9814 15.1247 12.9814C16.3341 12.9814 17.3145 13.9603 17.3145 15.1676C17.3145 16.375 16.3341 17.3538 15.1247 17.3538ZM23.1924 17.3538C21.983 17.3538 21.0026 16.375 21.0026 15.1676C21.0026 13.9603 21.983 12.9814 23.1924 12.9814C24.4018 12.9814 25.3823 13.9603 25.3823 15.1676C25.3823 16.375 24.4018 17.3538 23.1924 17.3538Z" fill="#4D6075"/>
</svg>
