<svg width="59" height="59" viewBox="0 0 59 59" fill="none" xmlns="http://www.w3.org/2000/svg">
<path d="M47.5527 55.8834C48.0693 55.8832 48.5658 56.0837 48.9374 56.4426C51.3647 58.7866 54.9055 59.567 58.0531 58.5901C56.0274 54.37 55.7467 49.5352 57.3164 45.0587C59.2646 39.489 59.7528 33.9065 57.5357 28.3077C55.5878 23.3892 51.8289 19.3029 47.0716 16.9727C47.3652 18.5412 47.5126 20.1336 47.5118 21.7293C47.5119 28.5486 44.8896 34.9624 40.1285 39.7893C35.3667 44.6168 28.9836 47.3312 22.1552 47.4327C20.8915 47.4522 19.628 47.3789 18.375 47.2134C22.1278 53.7914 29.2054 58.0756 36.9829 58.191C40.3852 58.2436 43.652 57.5308 46.6943 56.078C46.9623 55.9498 47.2556 55.8833 47.5527 55.8834Z" fill="#1E374A"/>
<path d="M22.2122 0.00433506C10.0988 -0.236192 0.0292736 9.56335 6.56831e-05 21.6741C-0.00709025 24.633 0.570496 27.5018 1.71691 30.2012C1.73355 30.2405 1.74904 30.2802 1.76305 30.3205C3.33283 34.7971 3.05229 39.6317 1.02643 43.852C4.17431 44.8284 7.7146 44.0484 10.1421 41.7043C10.4343 41.4222 10.8057 41.2361 11.2066 41.1709C11.6075 41.1058 12.0188 41.1647 12.3852 41.3398C15.4271 42.7926 18.6943 43.5076 22.0964 43.453C34.115 43.2745 43.5295 33.7316 43.5293 21.7276C43.5295 9.98555 33.9665 0.240627 22.2122 0.00433506ZM10.1552 24.9726C8.41486 24.9726 7.00398 23.564 7.00398 21.8266C7.00398 20.0892 8.41486 18.6806 10.1552 18.6806C11.8956 18.6806 13.3065 20.0892 13.3065 21.8266C13.3063 23.564 11.8956 24.9726 10.1552 24.9726ZM21.7648 24.9726C20.0244 24.9726 18.6135 23.564 18.6135 21.8266C18.6135 20.0892 20.0244 18.6806 21.7648 18.6806C23.5051 18.6806 24.916 20.0892 24.916 21.8266C24.916 23.564 23.5051 24.9726 21.7648 24.9726ZM33.3745 24.9726C31.6341 24.9726 30.2232 23.564 30.2232 21.8266C30.2232 20.0892 31.6341 18.6806 33.3745 18.6806C35.1148 18.6806 36.5257 20.0892 36.5257 21.8266C36.5257 23.564 35.1148 24.9726 33.3745 24.9726Z" fill="#1E374A"/>
</svg>
