<svg width="55" height="29" viewBox="0 0 55 29" fill="none" xmlns="http://www.w3.org/2000/svg">
<path d="M54.582 13.4254C54.0912 12.8778 42.2844 0 27.4963 0C12.7083 0 0.901626 12.8778 0.410667 13.4254C0.146215 13.7209 0 14.1035 0 14.5C0 14.8965 0.146215 15.2791 0.410667 15.5746C0.901626 16.1222 12.7085 29 27.4963 29C42.2842 29 54.0911 16.1222 54.582 15.5746C54.8464 15.2791 54.9926 14.8965 54.9926 14.5C54.9926 14.1035 54.8464 13.7209 54.582 13.4254ZM27.4963 25.7778C21.2784 25.7778 16.2186 20.7179 16.2186 14.5C16.2186 8.28208 21.2784 3.22222 27.4963 3.22222C33.7143 3.22222 38.7741 8.28208 38.7741 14.5C38.7741 20.7179 33.7143 25.7778 27.4963 25.7778Z" fill="#4D6075"/>
<path d="M29.1042 11.2786C29.1042 9.65787 29.9088 8.23203 31.1328 7.35505C30.0344 6.79278 28.8093 6.44531 27.4931 6.44531C23.0514 6.44531 19.4375 10.0592 19.4375 14.5009C19.4375 18.9425 23.0514 22.5564 27.4931 22.5564C31.4697 22.5564 34.7611 19.6528 35.4113 15.8587C32.167 16.9032 29.1042 14.4495 29.1042 11.2786Z" fill="#4D6075"/>
</svg>
