<svg width="78" height="41" viewBox="0 0 78 41" fill="none" xmlns="http://www.w3.org/2000/svg">
<path d="M77.1677 18.9807C76.4737 18.2066 59.7814 0 38.8741 0C17.9669 0 1.27471 18.2066 0.580598 18.9807C0.206718 19.3985 0 19.9394 0 20.5C0 21.0606 0.206718 21.6015 0.580598 22.0193C1.27471 22.7934 17.9672 41 38.8741 41C59.7811 41 76.4736 22.7934 77.1677 22.0193C77.5415 21.6015 77.7482 21.0606 77.7482 20.5C77.7482 19.9394 77.5415 19.3985 77.1677 18.9807ZM38.8741 36.4444C30.0833 36.4444 22.9297 29.2909 22.9297 20.5C22.9297 11.7091 30.0833 4.55556 38.8741 4.55556C47.665 4.55556 54.8186 11.7091 54.8186 20.5C54.8186 29.2909 47.665 36.4444 38.8741 36.4444Z" fill="#1E374A"/>
<path d="M41.151 15.9427C41.151 13.6513 42.2886 11.6354 44.0191 10.3956C42.4662 9.60062 40.7342 9.10938 38.8733 9.10938C32.5937 9.10938 27.4844 14.2187 27.4844 20.4983C27.4844 26.7778 32.5937 31.8872 38.8733 31.8872C44.4954 31.8872 49.1488 27.782 50.0681 22.418C45.4812 23.8947 41.151 20.4257 41.151 15.9427Z" fill="#1E374A"/>
</svg>
