<svg width="16" height="16" viewBox="0 0 16 16" fill="none" xmlns="http://www.w3.org/2000/svg">
<path d="M13.6569 2.34316C12.1459 0.832156 10.1369 0 8 0C5.86313 0 3.85413 0.832156 2.34313 2.34316C0.832125 3.85416 0 5.86313 0 8C0 10.1369 0.832125 12.1459 2.34313 13.6568C3.85413 15.1678 5.86313 16 8 16C10.1369 16 12.1459 15.1678 13.6569 13.6568C15.1679 12.1458 16 10.1369 16 8C16 5.86313 15.1679 3.85413 13.6569 2.34316ZM8 14.4298C4.45459 14.4298 1.57025 11.5454 1.57025 8C1.57025 7.99419 1.57044 7.98844 1.57047 7.98269C1.57047 7.98122 1.57025 7.97981 1.57025 7.97834C1.57025 7.97588 1.57056 7.9735 1.57062 7.97106C1.58622 4.46816 4.41706 1.61825 7.91262 1.57138C7.91994 1.57103 7.92719 1.57028 7.93459 1.57028C7.93903 1.57028 7.94334 1.57081 7.94775 1.57094C7.96519 1.57081 7.98256 1.57028 8.00003 1.57028C11.5454 1.57028 14.4298 4.45466 14.4298 8.00003C14.4298 11.5454 11.5454 14.4298 8 14.4298Z" fill="black"/>
<path d="M12.8873 8.38534C12.6259 8.38534 12.414 8.17341 12.414 7.91197C12.414 7.65053 12.6259 7.43859 12.8873 7.43859H13.4579C13.1899 4.81122 11.0591 2.72694 8.41131 2.53125V3.02797C8.41131 3.28941 8.19938 3.50134 7.93794 3.50134C7.6765 3.50134 7.46456 3.28941 7.46456 3.02797V2.54256C4.85594 2.79819 2.77803 4.8895 2.54294 7.504H3.05394C3.31537 7.504 3.52731 7.71594 3.52731 7.97738C3.52731 8.23881 3.31537 8.45075 3.05394 8.45075H2.53906C2.75672 11.1073 4.87628 13.2334 7.53 13.4614V12.8613C7.53 12.5999 7.74194 12.388 8.00338 12.388C8.26481 12.388 8.47675 12.5999 8.47675 12.8613V13.4614C11.1522 13.2315 13.2847 11.0723 13.4726 8.38534H12.8873ZM9.91963 6.75228L8.33813 8.33381C8.29417 8.37777 8.24199 8.41265 8.18456 8.43644C8.12713 8.46023 8.06557 8.47248 8.00341 8.47248C7.94124 8.47248 7.87969 8.46023 7.82225 8.43644C7.76482 8.41265 7.71264 8.37777 7.66869 8.33381L4.91578 5.58091C4.73091 5.39606 4.73091 5.09634 4.91578 4.91147C5.10063 4.72659 5.40034 4.72659 5.58522 4.91147L8.00344 7.32966L9.25025 6.08284C9.43509 5.89797 9.73481 5.89797 9.91969 6.08284C10.1045 6.26769 10.1045 6.56744 9.91963 6.75228Z" fill="black"/>
</svg>
