<svg width="26" height="18" viewBox="0 0 26 18" fill="none" xmlns="http://www.w3.org/2000/svg">
<g clip-path="url(#clip0_596_5365)">
<path d="M23.371 17.0803H1.892C1.39021 17.0803 0.908973 16.8746 0.554154 16.5084C0.199335 16.1423 0 15.6457 0 15.1279V1.95238C0 1.43458 0.199335 0.937982 0.554154 0.571839C0.908973 0.205696 1.39021 0 1.892 0H23.371C23.8728 0 24.354 0.205696 24.7088 0.571839C25.0637 0.937982 25.263 1.43458 25.263 1.95238V15.1279C25.263 15.6457 25.0637 16.1423 24.7088 16.5084C24.354 16.8746 23.8728 17.0803 23.371 17.0803Z" fill="#73AF00"/>
<path d="M5.23156 5.80204C5.27456 6.08581 5.44056 6.17558 5.58556 6.1632C5.66994 6.15449 5.74853 6.115 5.80719 6.05181C5.86586 5.98863 5.90074 5.9059 5.90556 5.81854V4.84441C5.90556 4.82087 5.91462 4.79831 5.93075 4.78166C5.94688 4.76502 5.96875 4.75567 5.99156 4.75567C6.01436 4.75567 6.03624 4.76502 6.05237 4.78166C6.0685 4.79831 6.07755 4.82087 6.07755 4.84441V5.82268C6.07743 5.88065 6.0911 5.93775 6.11737 5.98899C6.14364 6.04023 6.1817 6.08402 6.22821 6.11653C6.27472 6.14903 6.32826 6.16926 6.38412 6.17542C6.43998 6.18158 6.49644 6.17349 6.54856 6.15186L6.63456 6.11676C6.64256 6.93507 6.59456 7.65329 6.59356 7.66464C6.59053 7.7114 6.60555 7.75751 6.63534 7.79289C6.66513 7.82826 6.70726 7.85004 6.75256 7.85348H6.76456C6.80784 7.85334 6.84948 7.83638 6.88117 7.80597C6.91287 7.77556 6.93229 7.73394 6.93556 7.6894C6.93556 7.63162 6.99256 6.84426 6.97656 5.9723L7.02856 5.95063C7.05101 5.94147 7.07508 5.93728 7.0992 5.93835C7.12332 5.93942 7.14695 5.94571 7.16856 5.95682C7.26061 6.00434 7.36483 6.02075 7.46643 6.00371C7.56802 5.98667 7.66183 5.93705 7.73456 5.86189L7.76556 5.82989C7.83331 5.76019 7.88082 5.67234 7.90273 5.57624C7.92465 5.48015 7.92009 5.37964 7.88956 5.28608L7.74356 4.83307C7.78461 4.84545 7.82866 4.84159 7.86711 4.82226C7.90555 4.80293 7.93565 4.76951 7.95151 4.72852C7.96737 4.68754 7.96787 4.64193 7.9529 4.60059C7.93793 4.55925 7.90858 4.52513 7.87056 4.50492L7.52756 4.32743C7.49716 4.3118 7.46295 4.3058 7.42925 4.3102C7.39555 4.31461 7.36387 4.32919 7.3382 4.35215C7.31253 4.37511 7.29402 4.4054 7.28501 4.43919C7.27599 4.47299 7.27689 4.50878 7.28756 4.54206L7.56356 5.39753C7.57384 5.42873 7.57546 5.46228 7.56821 5.49438C7.56096 5.52648 7.54515 5.55584 7.52256 5.57914L7.49156 5.61114C7.46965 5.63363 7.44144 5.64843 7.41092 5.65343C7.3804 5.65843 7.34914 5.65337 7.32156 5.63899C7.21077 5.58267 7.08401 5.56948 6.96456 5.60185C6.95727 5.086 6.88671 4.57319 6.75456 4.07564C6.73883 4.03273 6.70761 3.99777 6.66745 3.97809C6.62729 3.95842 6.58131 3.95555 6.53914 3.9701C6.49698 3.98464 6.46191 4.01548 6.44129 4.05613C6.42068 4.09678 6.41611 4.14408 6.42856 4.18813C6.55934 4.69309 6.62655 5.21332 6.62856 5.736L6.42256 5.8206V4.84235C6.42256 4.7248 6.37731 4.61208 6.29676 4.52896C6.21622 4.44584 6.10697 4.39915 5.99306 4.39915C5.87915 4.39915 5.7699 4.44584 5.68936 4.52896C5.60881 4.61208 5.56355 4.7248 5.56355 4.84235V5.69988L5.38856 4.80727C5.38478 4.78376 5.37645 4.76128 5.36408 4.74117C5.3517 4.72105 5.33552 4.70371 5.31652 4.69018C5.29751 4.67666 5.27606 4.66722 5.25344 4.66244C5.23082 4.65765 5.20749 4.65761 5.18485 4.66233C5.16222 4.66704 5.14073 4.6764 5.12168 4.68987C5.10263 4.70333 5.08641 4.72062 5.07397 4.74069C5.06153 4.76077 5.05313 4.78322 5.04928 4.80672C5.04543 4.83021 5.04621 4.85427 5.05156 4.87745L5.23156 5.80204Z" fill="#4D6075"/>
<path d="M5.56212 4.31161C5.60774 4.31161 5.65149 4.29292 5.68374 4.25963C5.716 4.22635 5.73412 4.1812 5.73412 4.13412V3.95664C5.73593 3.93226 5.73283 3.90776 5.72503 3.88468C5.71723 3.86159 5.7049 3.84042 5.68879 3.82248C5.67269 3.80455 5.65317 3.79024 5.63146 3.78046C5.60975 3.77067 5.58631 3.76562 5.56262 3.76562C5.53893 3.76562 5.5155 3.77067 5.49379 3.78046C5.47208 3.79024 5.45255 3.80455 5.43645 3.82248C5.42035 3.84042 5.40801 3.86159 5.40021 3.88468C5.39241 3.90776 5.38932 3.93226 5.39113 3.95664V4.13412C5.39112 4.18102 5.4091 4.22601 5.44114 4.25927C5.47318 4.29253 5.51668 4.31134 5.56212 4.31161Z" fill="#4D6075"/>
<path d="M7.27885 4.13571H7.45085C7.47447 4.13758 7.49821 4.1344 7.52058 4.12635C7.54295 4.1183 7.56348 4.10557 7.58086 4.08895C7.59824 4.07233 7.6121 4.05218 7.62158 4.02978C7.63106 4.00737 7.63596 3.9832 7.63596 3.95875C7.63596 3.9343 7.63106 3.91011 7.62158 3.8877C7.6121 3.8653 7.59824 3.84516 7.58086 3.82855C7.56348 3.81193 7.54295 3.7992 7.52058 3.79115C7.49821 3.7831 7.47447 3.7799 7.45085 3.78177H7.27885C7.25523 3.7799 7.23149 3.7831 7.20912 3.79115C7.18675 3.7992 7.16623 3.81193 7.14885 3.82855C7.13147 3.84516 7.11761 3.8653 7.10812 3.8877C7.09864 3.91011 7.09375 3.9343 7.09375 3.95875C7.09375 3.9832 7.09864 4.00737 7.10812 4.02978C7.11761 4.05218 7.13147 4.07233 7.14885 4.08895C7.16623 4.10557 7.18675 4.1183 7.20912 4.12635C7.23149 4.1344 7.25523 4.13758 7.27885 4.13571Z" fill="#4D6075"/>
<path d="M6.16268 6.46574L5.30468 6.99718C5.28367 7.00826 5.26509 7.02367 5.2501 7.04248C5.23512 7.06128 5.22404 7.08307 5.21756 7.10648C5.21108 7.1299 5.20933 7.15443 5.21243 7.17857C5.21553 7.2027 5.22341 7.22592 5.23558 7.24678C5.24775 7.26764 5.26395 7.28569 5.28317 7.29981C5.30239 7.31393 5.32422 7.32383 5.3473 7.32888C5.37038 7.33392 5.39422 7.334 5.41734 7.32913C5.44046 7.32426 5.46236 7.31454 5.48168 7.30057L6.33967 6.76913C6.36068 6.75805 6.37926 6.74263 6.39425 6.72383C6.40924 6.70503 6.42032 6.68323 6.4268 6.65982C6.43328 6.63641 6.43502 6.61188 6.43192 6.58774C6.42882 6.5636 6.42093 6.54039 6.40876 6.51953C6.39659 6.49867 6.3804 6.48062 6.36118 6.4665C6.34196 6.45238 6.32014 6.44249 6.29705 6.43745C6.27397 6.4324 6.25013 6.43231 6.22701 6.43718C6.20389 6.44205 6.182 6.45177 6.16268 6.46574Z" fill="#4D6075"/>
<path d="M8.47291 6.77418C8.48645 6.83512 8.51348 6.89198 8.5519 6.94032C8.5878 6.98302 8.63324 7.01606 8.68429 7.03655C8.73535 7.05705 8.79048 7.0644 8.8449 7.05795C8.91457 7.05471 8.9827 7.03565 9.04441 7.00212C9.10612 6.96859 9.15989 6.9214 9.2019 6.86395C9.21342 6.872 9.22545 6.87925 9.23791 6.88563C9.28503 6.90892 9.3369 6.92015 9.38913 6.91835C9.44135 6.91656 9.49238 6.90178 9.5379 6.8753C9.63887 6.81075 9.72084 6.71896 9.77495 6.60984C9.82905 6.50073 9.85324 6.37843 9.8449 6.25616C9.84158 6.20982 9.82118 6.16654 9.78788 6.13525C9.75458 6.10396 9.71093 6.08703 9.6659 6.08795C9.62063 6.0901 9.57801 6.1106 9.5473 6.145C9.51659 6.17939 9.50028 6.2249 9.50191 6.27164C9.50191 6.27164 9.5019 6.48421 9.3809 6.56264C9.35439 6.51659 9.33641 6.46585 9.3279 6.41301C9.32005 6.36987 9.29699 6.33128 9.26317 6.30466C9.22935 6.27805 9.18718 6.26531 9.14479 6.2689C9.1024 6.27249 9.0628 6.29215 9.03364 6.32411C9.00449 6.35606 8.98784 6.39802 8.98691 6.4419C8.98691 6.4677 8.9809 6.69473 8.8109 6.71433C8.79039 6.63839 8.79039 6.55809 8.8109 6.48215C8.81891 6.44734 8.81653 6.41084 8.80409 6.37745C8.79165 6.34406 8.76972 6.31533 8.74118 6.29502C8.71264 6.27472 8.67881 6.2638 8.64414 6.26367C8.60947 6.26355 8.57558 6.27424 8.5469 6.29435L8.44691 6.36141C8.40191 5.32949 8.29691 4.13661 8.29491 4.12113C8.29417 4.09695 8.28865 4.07318 8.27869 4.05128C8.26873 4.02939 8.25454 4.00983 8.23698 3.99379C8.21943 3.97776 8.19888 3.96561 8.17661 3.95807C8.15434 3.95053 8.1308 3.94776 8.10746 3.94994C8.08411 3.95213 8.06145 3.95921 8.04085 3.97076C8.02026 3.98231 8.00217 3.99809 7.98769 4.01711C7.97322 4.03614 7.96267 4.05802 7.95669 4.0814C7.9507 4.10479 7.94941 4.12919 7.9529 4.15311C7.9529 4.16962 8.07591 5.55446 8.11291 6.61217L8.08691 6.63797C8.05978 6.55448 8.00987 6.48085 7.94317 6.42593C7.87647 6.37102 7.79582 6.33714 7.71091 6.32839C7.58386 6.32373 7.45844 6.35903 7.35129 6.42962C7.24413 6.5002 7.1603 6.60275 7.11091 6.72362C7.06803 6.81333 7.05767 6.91589 7.08169 7.01279C7.10572 7.10969 7.16255 7.19453 7.2419 7.25196C7.31958 7.29673 7.4063 7.32219 7.49519 7.32631C7.58407 7.33043 7.67265 7.31309 7.75391 7.27569C7.69906 7.47584 7.604 7.66184 7.47491 7.82158C7.40982 7.90866 7.32682 7.97975 7.23188 8.02972C7.13694 8.07969 7.03243 8.10728 6.9259 8.11051C6.8636 8.11115 6.80184 8.09846 6.74453 8.07324C6.68722 8.04802 6.63559 8.01082 6.5929 7.96398C6.46519 7.77977 6.4011 7.55666 6.4109 7.33039C6.41309 7.28364 6.39729 7.23788 6.36695 7.2031C6.33661 7.16831 6.29418 7.1473 6.2489 7.14463C6.22627 7.14281 6.20351 7.14574 6.18201 7.15325C6.1605 7.16075 6.14069 7.17267 6.12377 7.1883C6.10685 7.20392 6.09318 7.22292 6.08358 7.24415C6.07398 7.26538 6.06864 7.28839 6.0679 7.31181C6.05323 7.63223 6.14888 7.94769 6.33791 8.20236C6.41106 8.28466 6.49989 8.3505 6.59882 8.39578C6.69776 8.44105 6.80468 8.46478 6.9129 8.46548H6.94791C7.10048 8.46019 7.25009 8.42051 7.38622 8.3492C7.52235 8.27789 7.64171 8.1767 7.73591 8.05272C7.94552 7.7932 8.08152 7.47892 8.12891 7.14463C8.12135 7.45781 8.0429 7.76481 7.89983 8.0411C7.75675 8.3174 7.55301 8.55533 7.3049 8.73585C7.17991 8.82415 7.03448 8.87668 6.88341 8.8881C6.73234 8.89952 6.58103 8.86943 6.44491 8.80087C6.3172 8.72853 6.21313 8.61874 6.14585 8.4854C6.07857 8.35206 6.0511 8.20113 6.0669 8.05168C6.07061 8.00605 6.05709 7.96072 6.02916 7.92514C6.00123 7.88955 5.96105 7.86648 5.91702 7.86075C5.873 7.85502 5.82853 7.86707 5.79291 7.89438C5.7573 7.9217 5.73329 7.96216 5.72591 8.00731C5.70093 8.22994 5.74169 8.45516 5.84286 8.65347C5.94404 8.85178 6.10091 9.01395 6.29291 9.1187C6.45431 9.20229 6.63231 9.24609 6.8129 9.24665C7.05157 9.24442 7.2848 9.1729 7.48591 9.04027C7.78404 8.82799 8.02895 8.54555 8.20039 8.21629C8.37184 7.88703 8.46491 7.52041 8.47191 7.1467C8.47891 7.03422 8.47691 6.90936 8.47291 6.77418ZM7.4379 6.95683C7.4069 6.9362 7.4309 6.86912 7.4379 6.85364C7.45943 6.80529 7.49297 6.76369 7.53513 6.73306C7.57728 6.70242 7.62654 6.68385 7.6779 6.67924H7.6869C7.7089 6.67924 7.76691 6.6875 7.79191 6.82062C7.79191 6.83506 7.7919 6.8495 7.7989 6.86395C7.6099 6.98675 7.4819 6.99089 7.4379 6.96096V6.95683Z" fill="#4D6075"/>
<path d="M5.64853 8.5906C5.60926 8.56688 5.56248 8.56019 5.51844 8.57199C5.47439 8.58379 5.43667 8.61312 5.41353 8.65355C5.40485 8.66835 5.39516 8.68249 5.38453 8.69586L5.37854 8.68141C5.33032 8.48373 5.33204 8.2766 5.38353 8.07981C5.3933 8.03509 5.38592 7.98821 5.36295 7.94898C5.33997 7.90974 5.30319 7.8812 5.26028 7.86933C5.21737 7.85747 5.17168 7.86319 5.13277 7.8853C5.09386 7.90741 5.06475 7.9442 5.05153 7.98796C4.98117 8.25579 4.98289 8.53834 5.05653 8.80523C5.13553 9.02193 5.25653 9.07663 5.34353 9.08385H5.36653C5.43916 9.07357 5.50826 9.04516 5.56785 9.00111C5.62744 8.95706 5.67573 8.89869 5.70853 8.83104C5.73124 8.79089 5.73768 8.7431 5.72644 8.69808C5.71521 8.65306 5.68721 8.61444 5.64853 8.5906Z" fill="#4D6075"/>
<path d="M8.81986 5.37658C8.85837 5.37661 8.89574 5.36315 8.92587 5.3384L9.79186 4.63669C9.8026 4.62665 9.81201 4.61521 9.81986 4.60265C9.89845 4.55452 9.96013 4.48179 9.99596 4.39504C10.0318 4.30829 10.0399 4.21202 10.0191 4.12018C9.99837 4.02835 9.94978 3.94574 9.88043 3.88433C9.81107 3.82291 9.72456 3.7859 9.63345 3.77866C9.54233 3.77141 9.45135 3.7943 9.3737 3.84402C9.29604 3.89374 9.23576 3.96769 9.20159 4.05515C9.16742 4.14262 9.16114 4.23904 9.18366 4.33044C9.20619 4.42183 9.25636 4.50344 9.32687 4.56343L8.71386 5.05978C8.68585 5.0826 8.66541 5.11384 8.65537 5.14918C8.64534 5.18452 8.64621 5.2222 8.65786 5.25701C8.66951 5.29182 8.69135 5.32203 8.72038 5.34346C8.7494 5.36488 8.78418 5.37646 8.81986 5.37658ZM9.59986 4.13827C9.61687 4.13827 9.63349 4.14348 9.64764 4.15323C9.66178 4.16298 9.67281 4.17685 9.67931 4.19307C9.68582 4.20929 9.68753 4.22712 9.68421 4.24434C9.68089 4.26155 9.6727 4.27737 9.66067 4.28978C9.64864 4.30219 9.63331 4.31064 9.61663 4.31406C9.59995 4.31748 9.58266 4.31572 9.56695 4.30901C9.55123 4.30229 9.53781 4.29093 9.52836 4.27633C9.51891 4.26174 9.51386 4.24457 9.51386 4.22702C9.5136 4.21519 9.51563 4.20343 9.51983 4.19242C9.52403 4.18142 9.53031 4.17139 9.53832 4.16293C9.54634 4.15447 9.55591 4.14774 9.56648 4.14316C9.57704 4.13857 9.5884 4.13621 9.59986 4.13621V4.13827Z" fill="#4D6075"/>
<path d="M9.3943 5.20841C9.3729 5.20099 9.35029 5.19801 9.32777 5.19966C9.30525 5.2013 9.28328 5.20755 9.2631 5.218C9.24293 5.22846 9.22496 5.24294 9.21023 5.26059C9.19551 5.27825 9.18431 5.29874 9.1773 5.32089C9.14451 5.40661 9.13344 5.49956 9.14517 5.59093C9.15689 5.68229 9.19102 5.76907 9.2443 5.84303C9.278 5.87749 9.3182 5.90445 9.36241 5.9222C9.40662 5.93995 9.4539 5.94813 9.50131 5.94623C9.58216 5.94431 9.66218 5.92897 9.73831 5.90082C9.76053 5.89413 9.78122 5.88289 9.79913 5.86775C9.81704 5.85262 9.8318 5.8339 9.84254 5.81274C9.85327 5.79157 9.85975 5.76839 9.8616 5.74457C9.86344 5.72076 9.86061 5.69681 9.85327 5.67416C9.84593 5.6515 9.83423 5.6306 9.81887 5.61272C9.80352 5.59484 9.78484 5.58034 9.76393 5.57009C9.74301 5.55985 9.7203 5.55406 9.69717 5.55309C9.67404 5.55211 9.65095 5.55597 9.6293 5.56443C9.584 5.58047 9.537 5.59087 9.4893 5.59538C9.48117 5.54101 9.48599 5.48541 9.50331 5.43337C9.51065 5.41123 9.51364 5.38779 9.51213 5.36444C9.51061 5.34108 9.5046 5.31827 9.49446 5.29733C9.48431 5.27639 9.47024 5.25775 9.45304 5.24249C9.43585 5.22722 9.41587 5.21564 9.3943 5.20841Z" fill="#4D6075"/>
<path d="M11.3593 4.47763C11.403 4.49072 11.4501 4.48535 11.49 4.46272C11.5299 4.44008 11.5595 4.40202 11.5723 4.35689L11.6723 4.00296C11.6855 3.9578 11.6809 3.90906 11.6593 3.86745C11.6377 3.82584 11.601 3.79477 11.5573 3.78108C11.5135 3.7674 11.4663 3.77221 11.426 3.79447C11.3856 3.81672 11.3555 3.8546 11.3423 3.89976L11.2423 4.25371C11.2354 4.27633 11.233 4.30015 11.2352 4.32376C11.2373 4.34737 11.2441 4.37028 11.255 4.39115C11.2659 4.41203 11.2807 4.43044 11.2986 4.44529C11.3166 4.46014 11.3372 4.47114 11.3593 4.47763Z" fill="#4D6075"/>
<path d="M10.3572 4.45584C10.397 4.47951 10.4443 4.48592 10.4886 4.47363C10.5106 4.46755 10.5312 4.45705 10.5492 4.44275C10.5673 4.42846 10.5824 4.41065 10.5937 4.39032C10.6051 4.36999 10.6125 4.34755 10.6154 4.32428C10.6184 4.30102 10.6169 4.27738 10.611 4.25472C10.6051 4.23206 10.5949 4.21082 10.5811 4.19221C10.5672 4.1736 10.5499 4.158 10.5302 4.14628C10.4952 4.12564 10.5002 4.06681 10.5012 4.05546C10.5027 4.03013 10.5108 4.00569 10.5247 3.98477C10.5387 3.96386 10.5578 3.94728 10.5802 3.9368C10.6034 3.93154 10.6253 3.92138 10.6445 3.90697C10.6637 3.89256 10.6798 3.87421 10.6918 3.85306C10.7038 3.83191 10.7114 3.80844 10.7142 3.78411C10.7169 3.75977 10.7148 3.73511 10.7079 3.71168C10.701 3.68824 10.6894 3.66653 10.6739 3.64792C10.6585 3.62932 10.6395 3.61423 10.6181 3.60358C10.5967 3.59294 10.5734 3.58696 10.5497 3.58606C10.526 3.58515 10.5023 3.58933 10.4802 3.59832C10.3944 3.62826 10.3187 3.68312 10.2623 3.75633C10.2059 3.82955 10.1711 3.918 10.1622 4.01108C10.1481 4.09683 10.1591 4.18499 10.1939 4.26423C10.2286 4.34347 10.2855 4.41019 10.3572 4.45584Z" fill="#4D6075"/>
<path d="M8.99552 7.32422C8.9535 7.32538 8.91336 7.34238 8.88265 7.37201C8.85195 7.40163 8.83282 7.44183 8.82888 7.48501C8.82494 7.5282 8.83647 7.57138 8.86128 7.6064C8.88608 7.64142 8.92245 7.66585 8.96353 7.67508C8.99036 7.731 9.00145 7.79356 8.99552 7.85565C8.99883 7.90026 9.01834 7.94193 9.05013 7.97233C9.08193 8.00273 9.12368 8.01963 9.16703 8.01963C9.21038 8.01963 9.25213 8.00273 9.28393 7.97233C9.31573 7.94193 9.33522 7.90026 9.33853 7.85565C9.33853 7.33041 9.00952 7.32422 8.99552 7.32422Z" fill="#4D6075"/>
<path d="M11.9118 6.59221C11.9333 6.59575 11.955 6.59748 11.9768 6.59738C12.0543 6.59241 12.1301 6.57162 12.1998 6.53619C12.2695 6.50076 12.3317 6.45141 12.3828 6.391C12.4127 6.35727 12.4288 6.31295 12.4278 6.26727C12.4268 6.22158 12.4088 6.17805 12.3775 6.14574C12.3461 6.11343 12.304 6.09482 12.2597 6.09379C12.2154 6.09277 12.1725 6.1094 12.1398 6.14023C12.0398 6.24342 11.9818 6.24343 11.9678 6.24343C11.9348 6.24343 11.9058 6.19492 11.8988 6.18254C11.8767 6.14332 11.8409 6.11433 11.7987 6.10153C11.7565 6.08872 11.7112 6.09308 11.672 6.11368C11.6328 6.13429 11.6028 6.16958 11.5881 6.21233C11.5733 6.25508 11.575 6.30202 11.5928 6.34352C11.6246 6.40689 11.6698 6.46211 11.725 6.50514C11.7802 6.54817 11.844 6.57792 11.9118 6.59221Z" fill="#4D6075"/>
<path d="M14.8306 5.34607V5.3378C14.8137 5.29645 14.7823 5.26323 14.7426 5.24481C14.703 5.22639 14.658 5.22414 14.6169 5.23853C14.5757 5.25291 14.5413 5.28286 14.5206 5.32234C14.5 5.36182 14.4946 5.40789 14.5055 5.45131C14.5243 5.51872 14.5599 5.57982 14.6089 5.62839C14.6579 5.67696 14.7185 5.71128 14.7846 5.72787H14.8226C14.8927 5.72039 14.9598 5.69483 15.0178 5.65354C15.0759 5.61224 15.1229 5.55653 15.1546 5.49156C15.1687 5.47224 15.1789 5.45014 15.1844 5.42661C15.19 5.40308 15.1908 5.37862 15.1869 5.35475C15.183 5.33087 15.1743 5.30809 15.1615 5.28778C15.1488 5.26747 15.1321 5.25009 15.1125 5.23668C15.093 5.22328 15.071 5.21415 15.0479 5.20985C15.0248 5.20555 15.0011 5.20617 14.9782 5.21168C14.9554 5.21719 14.9339 5.22748 14.915 5.2419C14.8961 5.25631 14.8803 5.27456 14.8685 5.29551C14.8569 5.31314 14.8442 5.33002 14.8306 5.34607Z" fill="#4D6075"/>
<path d="M14.4906 8.5667C14.4906 7.81134 14.4586 7.10242 14.4136 6.48121C14.6452 6.88505 14.8458 7.30702 15.0136 7.74323C15.026 7.77694 15.048 7.80595 15.0768 7.82642C15.1055 7.84688 15.1396 7.85782 15.1746 7.85778C15.1951 7.85767 15.2154 7.85383 15.2346 7.84643C15.277 7.82976 15.3114 7.79642 15.3302 7.75369C15.3489 7.71095 15.3505 7.6623 15.3346 7.61837C15.0631 6.94041 14.7307 6.29022 14.3416 5.67631C14.2476 4.72179 14.1416 4.11606 14.1416 4.10574C14.1314 4.06163 14.1052 4.02322 14.0684 3.99841C14.0316 3.9736 13.987 3.96427 13.9437 3.97232C13.9005 3.98038 13.8619 4.00521 13.8358 4.04173C13.8097 4.07825 13.7982 4.12368 13.8036 4.16869C13.8036 4.17591 13.8586 4.48858 13.9236 5.01383C13.7916 4.80744 13.6696 4.62995 13.5666 4.47929H13.5746C13.5962 4.48774 13.6193 4.49159 13.6424 4.49061C13.6656 4.48964 13.6883 4.48385 13.7092 4.47361C13.7301 4.46336 13.7488 4.44886 13.7641 4.43098C13.7795 4.4131 13.7912 4.39221 13.7985 4.36956C13.8059 4.3469 13.8087 4.32296 13.8069 4.29914C13.805 4.27533 13.7985 4.25214 13.7878 4.23098C13.7771 4.20981 13.7623 4.1911 13.7444 4.17596C13.7265 4.16083 13.7058 4.14957 13.6836 4.14288L13.1686 3.96539C13.1339 3.95318 13.0963 3.9528 13.0613 3.96432C13.0264 3.97584 12.996 3.99865 12.9746 4.02937C12.9633 4.046 12.9548 4.06451 12.9496 4.08407C12.9023 4.03876 12.8446 4.00678 12.7818 3.99123C12.7191 3.97569 12.6536 3.9771 12.5916 3.99533C12.5353 4.02287 12.489 4.06827 12.4595 4.1249C12.43 4.18153 12.4188 4.2464 12.4276 4.31005C12.4404 4.48271 12.4802 4.65209 12.5456 4.81157C12.6456 5.1067 12.7096 5.32752 12.6026 5.43071C12.5812 5.45626 12.5537 5.47561 12.5228 5.48683C12.4919 5.49805 12.4588 5.50075 12.4266 5.49469C12.3206 5.46683 12.2156 5.32133 12.1456 5.10566C12.1416 5.097 12.1369 5.08871 12.1316 5.08089C12.1663 4.75338 12.1487 4.42221 12.0796 4.10057C12.0761 4.0768 12.0681 4.054 12.0558 4.03354C12.0436 4.01309 12.0275 3.99542 12.0085 3.98158C11.9894 3.96775 11.9678 3.95804 11.9451 3.95307C11.9223 3.94809 11.8987 3.94794 11.8759 3.95263C11.8531 3.95731 11.8314 3.96673 11.8122 3.98032C11.793 3.99391 11.7766 4.0114 11.7642 4.0317C11.7517 4.052 11.7434 4.07469 11.7396 4.09842C11.7359 4.12214 11.7369 4.1464 11.7426 4.16971C11.8727 4.58682 11.8404 5.03979 11.6526 5.43277C11.6221 5.4724 11.5828 5.50394 11.5381 5.52476C11.4934 5.54558 11.4446 5.55508 11.3956 5.55247C11.3799 5.55304 11.3643 5.54979 11.35 5.54298C11.3358 5.53617 11.3233 5.52599 11.3136 5.51327C11.187 5.19721 11.1553 4.84923 11.2226 4.51437C11.2266 4.48894 11.2253 4.46289 11.2186 4.43805C11.2119 4.41321 11.2001 4.39018 11.1839 4.37053C11.1677 4.35089 11.1476 4.33512 11.1249 4.32432C11.1022 4.31352 11.0776 4.30795 11.0526 4.30799C10.7526 4.30799 10.6456 4.65472 10.5466 4.96017C10.5036 5.09431 10.4226 5.34506 10.3666 5.37293C10.2666 5.37293 10.1956 5.05819 10.1946 4.84149C10.1943 4.7946 10.1761 4.74972 10.1438 4.71666C10.1116 4.68359 10.068 4.66503 10.0226 4.66503C10 4.66503 9.97771 4.66964 9.9569 4.67857C9.93608 4.6875 9.91719 4.70059 9.90129 4.71708C9.8854 4.73358 9.87283 4.75315 9.86429 4.77468C9.85576 4.79621 9.85143 4.81927 9.85157 4.84253C9.85157 5.25529 9.98656 5.72791 10.3666 5.72791C10.6496 5.72791 10.7666 5.40905 10.8606 5.10876C10.8621 5.33414 10.9302 5.55369 11.0556 5.73823C11.0974 5.78965 11.1498 5.83086 11.2089 5.85887C11.2681 5.88689 11.3325 5.90101 11.3976 5.90024C11.4973 5.90251 11.5962 5.88119 11.6867 5.8379C11.7771 5.79461 11.8568 5.7305 11.9196 5.65051C11.9432 5.61947 11.9646 5.58671 11.9836 5.55247C12.0669 5.68725 12.1948 5.78625 12.3436 5.8311C12.3831 5.84133 12.4238 5.84653 12.4646 5.84657C12.6052 5.84341 12.7392 5.78425 12.8386 5.68146C12.8596 5.65954 12.8787 5.63571 12.8956 5.61026C12.9368 5.62285 12.9796 5.62946 13.0226 5.62988C13.1489 5.62624 13.2719 5.58736 13.3786 5.51739C13.4143 5.49098 13.4388 5.45147 13.4472 5.40697C13.4556 5.36247 13.4471 5.31635 13.4236 5.27807C13.4 5.2398 13.3632 5.21225 13.3206 5.20111C13.278 5.18996 13.2329 5.19607 13.1946 5.21814C13.136 5.25409 13.0687 5.27232 13.0006 5.27077C12.9884 5.07073 12.9445 4.87411 12.8706 4.68877C12.8349 4.59207 12.8052 4.49316 12.7816 4.39261L12.8216 4.42975C12.8538 4.46296 12.8975 4.48162 12.9431 4.48162C12.9886 4.48162 13.0323 4.46296 13.0646 4.42975C13.0746 4.41793 13.083 4.40474 13.0896 4.39055C13.2676 4.64337 13.6336 5.17481 14.0106 5.78776C14.0826 6.54106 14.1456 7.50177 14.1456 8.55639C14.1489 8.60099 14.1684 8.64266 14.2002 8.67307C14.232 8.70347 14.2737 8.72035 14.3171 8.72035C14.3604 8.72035 14.4022 8.70347 14.434 8.67307C14.4658 8.64266 14.4853 8.60099 14.4886 8.55639L14.4906 8.5667Z" fill="#4D6075"/>
<path d="M14.6612 4.66702C14.6645 4.71162 14.684 4.7533 14.7158 4.7837C14.7476 4.8141 14.7893 4.831 14.8327 4.831C14.876 4.831 14.9178 4.8141 14.9496 4.7837C14.9814 4.7533 15.0009 4.71162 15.0042 4.66702C14.9767 4.45333 14.9123 4.24644 14.8142 4.05613C14.8049 4.03398 14.7913 4.01401 14.7743 3.99747C14.7572 3.98092 14.7371 3.96814 14.7151 3.9599C14.6931 3.95165 14.6697 3.94811 14.6464 3.94952C14.623 3.95092 14.6002 3.95724 14.5792 3.96807C14.5583 3.97889 14.5398 3.99401 14.5247 4.01249C14.5097 4.03097 14.4984 4.05243 14.4917 4.07555C14.4849 4.09867 14.4828 4.12295 14.4855 4.14694C14.4882 4.17093 14.4956 4.19411 14.5072 4.21506C14.5806 4.35673 14.6325 4.50914 14.6612 4.66702Z" fill="#4D6075"/>
<path d="M13.8784 8.58684C13.8583 8.57636 13.8365 8.57008 13.814 8.56835C13.7916 8.56663 13.769 8.56949 13.7477 8.57678C13.7263 8.58406 13.7065 8.59563 13.6895 8.61082C13.6725 8.626 13.6585 8.64449 13.6485 8.66525C13.6291 8.70258 13.6052 8.73726 13.5774 8.76845C13.5745 8.65723 13.5897 8.54631 13.6224 8.44031C13.6337 8.40245 13.6323 8.3618 13.6185 8.32484C13.6048 8.28789 13.5795 8.25674 13.5466 8.23634C13.5137 8.21593 13.4752 8.20745 13.4371 8.21225C13.399 8.21704 13.3636 8.23484 13.3364 8.2628L12.9935 8.61675C12.9763 8.63293 12.9625 8.65254 12.9529 8.67437C12.9433 8.6962 12.9381 8.71982 12.9375 8.74379C12.937 8.76776 12.9412 8.79159 12.9498 8.81384C12.9585 8.8361 12.9714 8.85631 12.9879 8.87327C13.0043 8.89022 13.0239 8.90356 13.0455 8.91249C13.067 8.92142 13.0901 8.92575 13.1134 8.92521C13.1366 8.92468 13.1595 8.91929 13.1806 8.90937C13.2018 8.89946 13.2208 8.88522 13.2364 8.86752L13.2454 8.85823C13.258 8.92804 13.29 8.99256 13.3374 9.04397C13.366 9.07568 13.4005 9.10115 13.4388 9.11887C13.4771 9.1366 13.5185 9.14622 13.5604 9.14717C13.5761 9.14841 13.5918 9.14841 13.6074 9.14717C13.6844 9.12271 13.7554 9.08136 13.8154 9.02597C13.8755 8.97058 13.9233 8.90244 13.9555 8.82624C13.9659 8.80535 13.9722 8.78252 13.9739 8.7591C13.9757 8.73567 13.9729 8.71213 13.9657 8.68983C13.9586 8.66753 13.9471 8.64693 13.9321 8.62924C13.9172 8.61155 13.8989 8.59714 13.8784 8.58684Z" fill="#4D6075"/>
<path d="M13.815 7.15963H12.607C12.6177 7.1156 12.6287 7.07364 12.64 7.03374C13.123 6.93055 13.409 6.76957 13.494 6.55493C13.5186 6.48876 13.5255 6.41701 13.5141 6.34713C13.5027 6.27726 13.4733 6.21182 13.429 6.15765C13.3829 6.08525 13.3172 6.0285 13.24 5.99454C13.1627 5.96057 13.0775 5.95091 12.995 5.96675C12.751 6.01731 12.534 6.2887 12.378 6.72314C12.0142 6.77273 11.671 6.92602 11.387 7.16582C11.3564 6.75057 11.2347 6.34795 11.031 5.98841C11.0046 5.95236 10.9658 5.92806 10.9227 5.92048C10.8795 5.9129 10.8351 5.9226 10.7986 5.94761C10.7621 5.97263 10.7363 6.01106 10.7263 6.05508C10.7164 6.09909 10.723 6.14537 10.745 6.18448C10.9632 6.58677 11.072 7.04242 11.06 7.50326C11.0727 7.82582 10.9772 8.14302 10.7895 8.40132C10.6019 8.65963 10.3336 8.84322 10.03 8.92111C9.83702 8.92111 9.75301 8.6848 9.71601 8.4846C10.0803 8.2703 10.369 7.94173 10.54 7.5466C10.6132 7.22252 10.5728 6.88217 10.426 6.58588L10.413 6.55493L10.424 6.56524C10.4567 6.59607 10.4996 6.61272 10.5439 6.61169C10.5882 6.61067 10.6304 6.59206 10.6617 6.55975C10.693 6.52744 10.711 6.4839 10.712 6.43822C10.713 6.39254 10.6969 6.34822 10.667 6.31449C10.567 6.2113 10.367 6.04827 10.195 6.12463C10.1387 6.15217 10.0924 6.19757 10.0629 6.2542C10.0334 6.31083 10.0222 6.3757 10.031 6.43935C10.0391 6.53882 10.0663 6.63564 10.111 6.72416C10.2283 6.94925 10.2638 7.21021 10.211 7.45992C10.0885 7.72543 9.89308 7.94794 9.649 8.09971C9.63334 8.07964 9.61356 8.06339 9.59108 8.05215C9.5686 8.04091 9.54399 8.03495 9.51901 8.0347C9.47357 8.03497 9.43007 8.05378 9.39803 8.08704C9.36599 8.1203 9.34801 8.16529 9.34801 8.21219C9.34801 8.24418 9.34801 8.27824 9.34801 8.31538C8.99568 8.5478 8.62812 8.75467 8.248 8.93452C8.21258 8.95149 8.18382 8.9804 8.16643 9.01648C8.14904 9.05256 8.14407 9.09368 8.15233 9.13306C8.16059 9.17245 8.18159 9.20776 8.21189 9.23319C8.24218 9.25862 8.27995 9.27266 8.319 9.27299C8.34347 9.27317 8.36769 9.26789 8.39 9.25752C8.74214 9.08957 9.0844 8.90041 9.41501 8.691C9.43827 8.84665 9.51246 8.98937 9.62526 9.09545C9.73806 9.20152 9.88267 9.26454 10.035 9.27402C10.2823 9.24279 10.5178 9.14674 10.7189 8.995C10.92 8.84327 11.0801 8.64091 11.184 8.40721C11.2168 8.46745 11.2553 8.52415 11.299 8.57645C11.6583 8.91187 12.1265 9.09599 12.611 9.09241C12.6546 9.09093 12.696 9.07243 12.7269 9.04065C12.7577 9.00887 12.7757 8.96618 12.7773 8.92122C12.7788 8.87625 12.7637 8.83238 12.7351 8.79845C12.7064 8.76452 12.6664 8.74307 12.623 8.73846C12.5426 8.72934 12.4674 8.69307 12.409 8.63528C12.3849 8.60251 12.3675 8.56503 12.3579 8.52512C12.3483 8.4852 12.3466 8.44368 12.353 8.40309C12.371 8.18432 13.053 8.02128 13.653 8.01199C13.6879 8.01138 13.7219 7.99979 13.7503 7.97877C13.7787 7.95776 13.8002 7.92831 13.812 7.89436L13.984 7.39594C13.9931 7.3692 13.9959 7.3406 13.9921 7.31254C13.9883 7.28447 13.978 7.25775 13.9621 7.23461C13.9463 7.21147 13.9253 7.19261 13.9009 7.17956C13.8765 7.16652 13.8495 7.15968 13.822 7.15963H13.815ZM13.061 6.31347H13.074C13.09 6.31347 13.116 6.32171 13.151 6.37021C13.158 6.3795 13.178 6.41046 13.173 6.42388C13.153 6.47444 13.035 6.55699 12.788 6.63026C12.897 6.41149 13.007 6.32585 13.061 6.31347ZM12.024 8.64353C11.8426 8.58992 11.6785 8.48691 11.549 8.3453C11.4813 8.25989 11.4325 8.16016 11.4063 8.05317C11.38 7.94618 11.3768 7.83454 11.397 7.72615C11.407 7.70007 11.4191 7.67488 11.433 7.65082C11.675 7.62812 12.321 7.72616 12.365 7.91706C12.2705 7.9545 12.1873 8.01692 12.1235 8.09806C12.0598 8.1792 12.0179 8.27622 12.002 8.37936C11.994 8.46807 12.0014 8.55753 12.024 8.64353Z" fill="#4D6075"/>
<path d="M15.6845 4.60828L15.5125 4.07685C15.4988 4.03585 15.4711 4.00143 15.4346 3.98007C15.398 3.95872 15.3552 3.9519 15.3141 3.96091C15.273 3.96992 15.2365 3.99414 15.2115 4.02899C15.1866 4.06385 15.1748 4.10693 15.1785 4.15011C15.2965 5.37293 15.5215 7.76182 15.5215 8.03012C15.5215 8.27572 15.0985 8.75864 14.4145 9.11156C14.3764 9.13413 14.3481 9.1709 14.3354 9.21433C14.3228 9.25776 14.3267 9.30454 14.3464 9.34508C14.3661 9.38562 14.4001 9.41684 14.4414 9.43233C14.4827 9.44782 14.5282 9.4464 14.5685 9.42836C15.1935 9.1064 15.8685 8.5306 15.8685 8.03012C15.8685 7.76801 15.6935 5.88476 15.5925 4.83118C15.6324 4.81297 15.664 4.77983 15.6811 4.73845C15.6982 4.69708 15.6994 4.65055 15.6845 4.60828Z" fill="#4D6075"/>
<path d="M17.1177 6.21287C17.1444 6.2402 17.179 6.25777 17.2163 6.26288C17.2535 6.26799 17.2914 6.26036 17.324 6.24117C17.3567 6.22197 17.3824 6.19227 17.3971 6.1566C17.4119 6.12092 17.4149 6.08125 17.4057 6.04364C17.3759 5.93185 17.3674 5.81515 17.3808 5.70002C17.4233 5.70155 17.4648 5.68696 17.4976 5.65901C17.5304 5.63106 17.5522 5.59169 17.5587 5.54832C17.565 5.50181 17.5532 5.45463 17.5258 5.41711C17.4984 5.37959 17.4578 5.35478 17.4127 5.34813C17.361 5.33919 17.3078 5.34398 17.2583 5.36203C17.2088 5.38008 17.1646 5.41081 17.1297 5.45133C17.0851 5.50564 17.0551 5.57111 17.0427 5.64119L16.8427 5.43481C16.81 5.40398 16.7671 5.38735 16.7228 5.38837C16.6786 5.3894 16.6364 5.40801 16.6051 5.44032C16.5738 5.47263 16.5557 5.51615 16.5547 5.56183C16.5537 5.60751 16.5699 5.65183 16.5997 5.68556L17.1177 6.21287Z" fill="#4D6075"/>
<path d="M17.5038 6.3996L16.8598 6.87531C16.8261 6.9039 16.8041 6.94468 16.7984 6.98938C16.7926 7.03408 16.8036 7.07934 16.8291 7.11599C16.8545 7.15263 16.8925 7.1779 16.9354 7.18667C16.9783 7.19544 17.0227 7.18705 17.0598 7.16321L17.7038 6.6875C17.7238 6.67466 17.741 6.65774 17.7544 6.63777C17.7677 6.6178 17.777 6.59522 17.7816 6.5714C17.7862 6.54759 17.786 6.52306 17.781 6.49934C17.776 6.47561 17.7664 6.45319 17.7527 6.43346C17.739 6.41373 17.7215 6.39711 17.7013 6.38463C17.6811 6.37215 17.6587 6.36407 17.6354 6.3609C17.612 6.35773 17.5883 6.35952 17.5657 6.36617C17.5431 6.37283 17.522 6.38421 17.5038 6.3996Z" fill="#4D6075"/>
<path d="M17.4425 7.06418C17.4166 7.09849 17.4039 7.1414 17.4066 7.18476C17.4094 7.22812 17.4275 7.26893 17.4575 7.29945C17.4908 7.3797 17.5029 7.46768 17.4925 7.55434C17.4908 7.60125 17.5073 7.64691 17.5382 7.68133C17.5691 7.71576 17.612 7.73614 17.6575 7.73802H17.6645C17.7089 7.73806 17.7516 7.72035 17.7837 7.68861C17.8157 7.65687 17.8347 7.61357 17.8365 7.56776C17.8485 7.20659 17.7365 7.07347 17.6845 7.03426C17.6667 7.01978 17.6463 7.00907 17.6245 7.00274C17.6027 6.99641 17.5799 6.99457 17.5574 6.99735C17.535 7.00013 17.5132 7.00747 17.4935 7.01894C17.4738 7.03041 17.4564 7.04578 17.4425 7.06418Z" fill="#4D6075"/>
<path d="M18.9369 8.3687C18.9825 8.3687 19.0262 8.34999 19.0585 8.31671C19.0907 8.28342 19.1089 8.23827 19.1089 8.1912C19.1089 7.93012 19.0959 7.63809 19.0749 7.33471C19.225 7.58237 19.3586 7.84025 19.4749 8.10658C19.4886 8.13775 19.5109 8.16412 19.539 8.18244C19.567 8.20077 19.5997 8.21026 19.6329 8.20978C19.6563 8.20987 19.6794 8.20494 19.7009 8.19532C19.7425 8.17671 19.7754 8.14187 19.7922 8.09838C19.8091 8.05488 19.8086 8.00627 19.7909 7.96315C19.5668 7.47578 19.3039 7.00844 19.0049 6.56593C18.9379 5.91583 18.8499 5.27811 18.7809 4.82097C18.8186 4.82455 18.8563 4.81471 18.8879 4.7931C18.9133 4.77595 18.9338 4.75205 18.9472 4.7239C18.9605 4.69575 18.9663 4.6644 18.9639 4.63316C18.9676 4.65094 18.974 4.66801 18.9829 4.68372C19.0522 4.81617 19.0745 4.96951 19.0459 5.11713C19.0376 5.16264 19.0468 5.20969 19.0717 5.24825C19.0965 5.28681 19.135 5.31381 19.1789 5.32351C19.1905 5.32468 19.2022 5.32468 19.2139 5.32351C19.2533 5.32342 19.2916 5.30931 19.3222 5.28357C19.3527 5.25783 19.3738 5.22201 19.3819 5.18213C19.4281 4.94432 19.3894 4.69727 19.2729 4.48663C19.2484 4.447 19.2097 4.419 19.1653 4.40875C19.1209 4.3985 19.0743 4.40684 19.0359 4.43194C19.0103 4.44904 18.9897 4.4729 18.9762 4.50103C18.9626 4.52917 18.9567 4.56055 18.9589 4.59189C18.9553 4.57375 18.9488 4.55632 18.9399 4.54029L18.6499 4.07489C18.6284 4.04042 18.596 4.01471 18.5582 4.0021C18.5204 3.98949 18.4795 3.99077 18.4425 4.00572C18.4055 4.02067 18.3747 4.04837 18.3553 4.08412C18.3358 4.11986 18.329 4.16145 18.3359 4.20182C18.3359 4.21626 18.4699 4.9933 18.5859 5.93028C18.4539 5.73834 18.3229 5.55053 18.1949 5.37201C18.1739 5.10371 18.1529 4.85606 18.1349 4.64967L18.1629 4.63832C18.2035 4.61728 18.2344 4.58051 18.2488 4.53604C18.2632 4.49156 18.26 4.44302 18.2399 4.40098L18.0679 4.04704C18.0495 4.01061 18.0195 3.98187 17.983 3.96571C17.9464 3.94955 17.9055 3.94696 17.8673 3.9584C17.8291 3.96984 17.7959 3.99459 17.7734 4.02844C17.7509 4.06229 17.7405 4.10313 17.7439 4.14403C17.7649 4.35041 17.7859 4.58981 17.8069 4.83541C17.6979 4.68785 17.5979 4.55267 17.5069 4.43813C17.5283 4.41907 17.5449 4.39483 17.5551 4.36759C17.5653 4.34034 17.5688 4.31092 17.5653 4.28193C17.5619 4.25294 17.5515 4.22528 17.5352 4.20141C17.5189 4.17753 17.4972 4.15819 17.4719 4.14507L17.1289 3.96757C17.0938 3.94972 17.054 3.9447 17.0158 3.95335C16.9777 3.96199 16.9435 3.98379 16.919 4.01513C16.8944 4.04648 16.8809 4.08552 16.8807 4.12583C16.8805 4.16613 16.8936 4.2053 16.9179 4.2369C16.9269 4.24928 17.3499 4.79517 17.8559 5.501C17.9566 6.3783 17.9781 7.26337 17.9199 8.14476C17.9049 8.1912 17.8789 8.24796 17.8539 8.24796C17.7539 8.26241 17.5029 8.023 17.3779 7.76708C17.3606 7.71886 17.3291 7.67741 17.2879 7.64855C17.2466 7.61969 17.1977 7.60484 17.1479 7.6061C16.9629 7.61745 16.8909 7.82694 16.7609 8.20771C16.6885 8.47565 16.5733 8.72922 16.4199 8.95792C16.3078 8.74085 16.2353 8.5044 16.2059 8.26034C16.2195 8.2995 16.246 8.33247 16.2809 8.35339C16.3157 8.37432 16.3566 8.38187 16.3963 8.37471C16.436 8.36755 16.472 8.34614 16.4979 8.31427C16.5238 8.28239 16.538 8.24209 16.5379 8.20049C16.5379 7.93632 16.3589 5.92409 16.2589 4.82097C16.2995 4.8043 16.3324 4.7723 16.351 4.73147C16.3696 4.69065 16.3724 4.64407 16.3589 4.60118L16.1869 4.06974C16.1732 4.02875 16.1455 3.99432 16.109 3.97297C16.0724 3.95161 16.0295 3.94479 15.9884 3.9538C15.9474 3.96282 15.9109 3.98704 15.8859 4.02189C15.8609 4.05674 15.8492 4.09983 15.8529 4.14301C15.9699 5.4071 16.1889 7.8486 16.1949 8.18501V8.17572C16.1928 8.15171 16.186 8.12841 16.1748 8.10721C16.1637 8.08601 16.1486 8.06736 16.1302 8.05241C16.1119 8.03747 16.0908 8.02652 16.0682 8.02026C16.0457 8.014 16.0222 8.01254 15.999 8.01598C15.9759 8.01942 15.9537 8.02768 15.9338 8.04026C15.9139 8.05284 15.8966 8.06949 15.8832 8.08916C15.8697 8.10884 15.8602 8.13114 15.8553 8.15471C15.8505 8.17829 15.8503 8.20265 15.8549 8.22629C15.9049 8.5885 16.0329 9.21073 16.3279 9.31289C16.3572 9.3231 16.3879 9.32833 16.4189 9.32837C16.4647 9.32711 16.5098 9.3162 16.5514 9.29633C16.593 9.27646 16.6303 9.24804 16.6609 9.2128C16.857 8.94902 17.0014 8.64827 17.0859 8.32741C17.1109 8.25415 17.1409 8.16746 17.1689 8.09316C17.3269 8.3305 17.6009 8.62564 17.8799 8.60293C17.9687 8.59321 18.0523 8.55458 18.1184 8.49262C18.1846 8.43066 18.2299 8.34858 18.2479 8.25827C18.3254 7.52285 18.3233 6.78082 18.2419 6.04585C18.3869 6.25223 18.5309 6.46894 18.6699 6.68048C18.7239 7.21089 18.7619 7.74232 18.7619 8.17882C18.7602 8.20341 18.7635 8.22808 18.7716 8.25128C18.7797 8.27448 18.7924 8.29569 18.8088 8.31356C18.8253 8.33142 18.8452 8.34555 18.8672 8.35505C18.8893 8.36454 18.913 8.36919 18.9369 8.3687Z" fill="#4D6075"/>
<path d="M20.2488 7.43468C20.1268 6.49977 19.9578 5.41627 19.8488 4.75171C19.8736 4.75794 19.8994 4.75829 19.9244 4.75275C19.9493 4.74721 19.9727 4.73592 19.9928 4.71972C20.029 4.6911 20.0527 4.64884 20.0587 4.60221C20.0647 4.55558 20.0525 4.5084 20.0248 4.47103L19.7138 4.05C19.6904 4.01849 19.6574 3.99598 19.6202 3.98608C19.5829 3.97617 19.5435 3.97946 19.5083 3.99538C19.473 4.01131 19.444 4.03897 19.4258 4.07394C19.4076 4.10891 19.4012 4.14917 19.4078 4.18828C19.4078 4.20686 19.7168 6.02509 19.9078 7.48112C19.9543 7.71072 19.9531 7.94788 19.9043 8.17697C19.8555 8.40606 19.7603 8.62189 19.6248 8.81023C19.5449 8.89782 19.4465 8.96524 19.3372 9.00729C19.228 9.04934 19.1108 9.06489 18.9948 9.05273C18.9717 9.05022 18.9484 9.05252 18.9263 9.05954C18.9041 9.06655 18.8835 9.07812 18.8658 9.09355C18.8481 9.10897 18.8335 9.12794 18.8231 9.1493C18.8127 9.17067 18.8065 9.194 18.805 9.21788C18.8036 9.24175 18.8068 9.26569 18.8145 9.28826C18.8222 9.31083 18.8342 9.33154 18.8499 9.34918C18.8656 9.36682 18.8845 9.38101 18.9057 9.39089C18.9268 9.40077 18.9496 9.40614 18.9728 9.40668H19.0588C19.2117 9.41 19.3635 9.3799 19.5043 9.31837C19.6451 9.25683 19.7717 9.16524 19.8758 9.04963C20.0476 8.82441 20.17 8.56335 20.2344 8.2845C20.2988 8.00565 20.3037 7.71568 20.2488 7.43468Z" fill="#4D6075"/>
<path d="M18.3576 8.60476C18.3276 8.63925 18.3116 8.6844 18.3131 8.73076C18.3146 8.77712 18.3334 8.82109 18.3656 8.85345C18.376 8.86343 18.3833 8.87636 18.3866 8.89061C18.3819 8.90603 18.3728 8.91966 18.3606 8.92982C18.3435 8.94599 18.3297 8.96558 18.3201 8.98741C18.3105 9.00925 18.3053 9.03285 18.3047 9.05682C18.3042 9.08079 18.3084 9.10464 18.3171 9.12689C18.3257 9.14915 18.3387 9.16936 18.3551 9.18631C18.3715 9.20327 18.3911 9.21663 18.4127 9.22555C18.4342 9.23448 18.4573 9.23878 18.4805 9.23824C18.5038 9.23771 18.5267 9.23232 18.5478 9.2224C18.569 9.21249 18.588 9.19825 18.6037 9.18055C18.6442 9.1422 18.6764 9.09543 18.6981 9.04331C18.7198 8.9912 18.7306 8.93492 18.7297 8.8782C18.7233 8.76731 18.6747 8.66349 18.5946 8.58927C18.561 8.55942 18.5174 8.54433 18.4731 8.54723C18.4288 8.55012 18.3874 8.57077 18.3576 8.60476Z" fill="#4D6075"/>
<path d="M17.7524 12.4896H16.5524V12.3121C16.5542 12.2877 16.5511 12.2632 16.5433 12.2401C16.5355 12.217 16.5232 12.1959 16.507 12.178C16.4909 12.16 16.4714 12.1457 16.4497 12.1359C16.428 12.1261 16.4046 12.1211 16.3809 12.1211C16.3572 12.1211 16.3338 12.1261 16.312 12.1359C16.2903 12.1457 16.2708 12.16 16.2547 12.178C16.2386 12.1959 16.2263 12.217 16.2185 12.2401C16.2107 12.2632 16.2076 12.2877 16.2094 12.3121V12.4896H7.10938C7.54861 12.8472 8.09509 13.0351 8.65437 13.021H16.2094V13.375C16.2094 13.4221 16.2275 13.4672 16.2598 13.5005C16.292 13.5338 16.3358 13.5525 16.3814 13.5525H17.7524C17.889 13.5525 18.02 13.4965 18.1165 13.3968C18.2131 13.2972 18.2674 13.162 18.2674 13.021C18.2674 12.8801 18.2131 12.7449 18.1165 12.6452C18.02 12.5456 17.889 12.4896 17.7524 12.4896ZM17.7524 13.1985H16.5524V13.021H17.9264L17.8954 12.9261C17.9146 12.9539 17.9254 12.9869 17.9264 13.021C17.9264 13.0445 17.9219 13.0678 17.9131 13.0894C17.9043 13.1111 17.8915 13.1308 17.8753 13.1473C17.8591 13.1638 17.8399 13.1768 17.8188 13.1856C17.7977 13.1944 17.7751 13.1988 17.7524 13.1985Z" fill="#4D6075"/>
</g>
<defs>
<clipPath id="clip0_596_5365">
<rect width="25.263" height="17.0803" fill="white"/>
</clipPath>
</defs>
</svg>
