<svg width="944" height="39" viewBox="0 0 944 39" fill="none" xmlns="http://www.w3.org/2000/svg">
<g clip-path="url(#clip0_596_4432)">
<path d="M914.819 14.9522L927.391 0.0234375L902.404 0.0608088L914.819 14.9522Z" fill="#4E6075"/>
<path d="M858.608 15.0381L871.18 0.109375L846.201 0.146734L858.608 15.0381Z" fill="#4E6075"/>
<path d="M827.39 15.085L839.953 0.15625L814.975 0.193609L827.39 15.085Z" fill="#4E6075"/>
<path d="M902.344 22.4251L914.952 37.3163L889.974 37.3536L902.344 22.4251Z" fill="#4E6075"/>
<path d="M871.118 22.4641L883.725 37.3553L858.747 37.3927L871.118 22.4641Z" fill="#4E6075"/>
<path d="M771.179 15.1631L783.742 0.234375L758.764 0.271734L771.179 15.1631Z" fill="#4E6075"/>
<path d="M739.96 15.21L752.523 0.28125L727.545 0.318609L739.96 15.21Z" fill="#4E6075"/>
<path d="M814.906 22.5501L827.522 37.4413L802.536 37.4786L814.906 22.5501Z" fill="#4E6075"/>
<path d="M783.688 22.5969L796.296 37.4881L771.317 37.5255L783.688 22.5969Z" fill="#4E6075"/>
<path d="M683.757 15.2959L696.32 0.367188L671.342 0.404546L683.757 15.2959Z" fill="#4E6075"/>
<path d="M652.522 15.3428L665.094 0.414062L640.107 0.451434L652.522 15.3428Z" fill="#4E6075"/>
<path d="M727.477 22.6829L740.085 37.5741L715.106 37.6114L727.477 22.6829Z" fill="#4E6075"/>
<path d="M696.25 22.7298L708.866 37.621L683.888 37.6583L696.25 22.7298Z" fill="#4E6075"/>
<path d="M596.319 15.4287L608.891 0.5L583.912 0.537359L596.319 15.4287Z" fill="#4E6075"/>
<path d="M565.093 15.4756L577.656 0.546875L552.678 0.584234L565.093 15.4756Z" fill="#4E6075"/>
<path d="M640.047 22.8157L652.655 37.7069L627.677 37.7443L640.047 22.8157Z" fill="#4E6075"/>
<path d="M608.821 22.8626L621.429 37.7538L596.45 37.7911L608.821 22.8626Z" fill="#4E6075"/>
<path d="M508.89 15.5615L521.453 0.632812L496.475 0.670171L508.89 15.5615Z" fill="#4E6075"/>
<path d="M477.671 15.6084L490.234 0.679688L465.256 0.717046L477.671 15.6084Z" fill="#4E6075"/>
<path d="M552.617 22.9407L565.233 37.8319L540.247 37.8693L552.617 22.9407Z" fill="#4E6075"/>
<path d="M521.391 22.9876L533.999 37.8788L509.021 37.9161L521.391 22.9876Z" fill="#4E6075"/>
<path d="M421.46 15.6865L434.023 0.757812L409.045 0.795171L421.46 15.6865Z" fill="#4E6075"/>
<path d="M390.233 15.7334L402.805 0.804688L377.818 0.842059L390.233 15.7334Z" fill="#4E6075"/>
<path d="M465.188 23.0735L477.796 37.9647L452.817 38.0021L465.188 23.0735Z" fill="#4E6075"/>
<path d="M433.953 23.1204L446.569 38.0116L421.591 38.0489L433.953 23.1204Z" fill="#4E6075"/>
<path d="M334.022 15.8194L346.594 0.890625L321.615 0.927984L334.022 15.8194Z" fill="#4E6075"/>
<path d="M302.804 15.8662L315.367 0.9375L290.389 0.974859L302.804 15.8662Z" fill="#4E6075"/>
<path d="M377.758 23.2063L390.366 38.0975L365.388 38.1349L377.758 23.2063Z" fill="#4E6075"/>
<path d="M346.532 23.2532L359.139 38.1444L334.161 38.1818L346.532 23.2532Z" fill="#4E6075"/>
<path d="M246.592 15.9522L259.164 1.02344L234.177 1.06081L246.592 15.9522Z" fill="#4E6075"/>
<path d="M215.374 15.999L227.938 1.07031L202.959 1.10767L215.374 15.999Z" fill="#4E6075"/>
<path d="M290.32 23.3391L302.936 38.2303L277.95 38.2677L290.32 23.3391Z" fill="#4E6075"/>
<path d="M259.102 23.386L271.71 38.2772L246.731 38.3146L259.102 23.386Z" fill="#4E6075"/>
<path d="M159.163 16.085L171.727 1.15625L146.748 1.19361L159.163 16.085Z" fill="#4E6075"/>
<path d="M127.936 16.1319L140.508 1.20312L115.521 1.2405L127.936 16.1319Z" fill="#4E6075"/>
<path d="M202.891 23.4641L215.499 38.3553L190.521 38.3927L202.891 23.4641Z" fill="#4E6075"/>
<path d="M171.664 23.511L184.28 38.4022L159.302 38.4396L171.664 23.511Z" fill="#4E6075"/>
<path d="M71.7331 16.21L84.3047 1.28125L59.3264 1.31861L71.7331 16.21Z" fill="#4E6075"/>
<path d="M40.5071 16.2568L53.0703 1.32812L28.0919 1.36548L40.5071 16.2568Z" fill="#4E6075"/>
<path d="M115.461 23.5969L128.069 38.4881L103.091 38.5255L115.461 23.5969Z" fill="#4E6075"/>
<path d="M84.2348 23.6438L96.8426 38.535L71.8643 38.5724L84.2348 23.6438Z" fill="#4E6075"/>
<path d="M28.0233 23.7298L40.6395 38.621L15.6528 38.6583L28.0233 23.7298Z" fill="#4E6075"/>
<path d="M930.46 37.2882L943.031 22.3594L918.053 22.3967L930.46 37.2882Z" fill="#D69030"/>
<path d="M843.03 37.421L855.602 22.4922L830.615 22.5296L843.03 37.421Z" fill="#D69030"/>
<path d="M886.695 0.081336L899.311 14.9724L874.325 15.0098L886.695 0.081336Z" fill="#D69030"/>
<path d="M755.609 37.5538L768.172 22.625L743.194 22.6624L755.609 37.5538Z" fill="#D69030"/>
<path d="M799.266 0.214136L811.874 15.1052L786.896 15.1426L799.266 0.214136Z" fill="#D69030"/>
<path d="M668.171 37.6789L680.742 22.75L655.764 22.7874L668.171 37.6789Z" fill="#D69030"/>
<path d="M711.836 0.346949L724.444 15.238L699.466 15.2754L711.836 0.346949Z" fill="#D69030"/>
<path d="M580.741 37.8117L593.312 22.8828L568.326 22.9202L580.741 37.8117Z" fill="#D69030"/>
<path d="M624.398 0.479774L637.014 15.3708L612.028 15.4082L624.398 0.479774Z" fill="#D69030"/>
<path d="M493.312 37.9445L505.875 23.0156L480.897 23.053L493.312 37.9445Z" fill="#D69030"/>
<path d="M536.969 0.604761L549.577 15.4958L524.599 15.5332L536.969 0.604761Z" fill="#D69030"/>
<path d="M405.874 38.0773L418.445 23.1484L393.467 23.1858L405.874 38.0773Z" fill="#D69030"/>
<path d="M449.539 0.737574L462.147 15.6286L437.169 15.666L449.539 0.737574Z" fill="#D69030"/>
<path d="M318.444 38.2023L331.016 23.2734L306.029 23.3108L318.444 38.2023Z" fill="#D69030"/>
<path d="M362.101 0.870398L374.718 15.7615L349.739 15.7988L362.101 0.870398Z" fill="#D69030"/>
<path d="M231.015 38.3351L243.578 23.4062L218.6 23.4436L231.015 38.3351Z" fill="#D69030"/>
<path d="M274.68 1.0032L287.288 15.8943L262.31 15.9316L274.68 1.0032Z" fill="#D69030"/>
<path d="M143.593 38.4679L156.156 23.5391L131.178 23.5764L143.593 38.4679Z" fill="#D69030"/>
<path d="M187.25 1.1282L199.858 16.0193L174.88 16.0566L187.25 1.1282Z" fill="#D69030"/>
<path d="M56.1549 38.6007L68.7266 23.6719L43.7398 23.7092L56.1549 38.6007Z" fill="#D69030"/>
<path d="M99.8123 1.26102L112.429 16.1521L87.4502 16.1894L99.8123 1.26102Z" fill="#D69030"/>
<path d="M12.3832 1.39382L24.991 16.2849L0.0127667 16.3223L12.3832 1.39382Z" fill="#D69030"/>
</g>
<defs>
<clipPath id="clip0_596_4432">
<rect width="37.271" height="943.011" fill="white" transform="translate(943) rotate(89.9143)"/>
</clipPath>
</defs>
</svg>
