<svg width="37" height="1008" viewBox="0 0 37 1008" fill="none" xmlns="http://www.w3.org/2000/svg">
<g clip-path="url(#clip0_596_5227)">
<path d="M14.9099 30.1494L0 16.6875V43.3962L14.9099 30.1494Z" fill="#4E6075"/>
<path d="M14.9099 90.2275L0 76.7656V103.465L14.9099 90.2275Z" fill="#4E6075"/>
<path d="M14.9099 123.601L0 110.148V136.848L14.9099 123.601Z" fill="#4E6075"/>
<path d="M22.3594 43.492L37.2694 30.0391V56.7389L22.3594 43.492Z" fill="#4E6075"/>
<path d="M22.3594 76.8748L37.2694 63.4219V90.1217L22.3594 76.8748Z" fill="#4E6075"/>
<path d="M14.9099 183.683L0 170.23V196.93L14.9099 183.683Z" fill="#4E6075"/>
<path d="M14.9099 217.054L0 203.602V230.301L14.9099 217.054Z" fill="#4E6075"/>
<path d="M22.3594 136.958L37.2694 123.496V150.205L22.3594 136.958Z" fill="#4E6075"/>
<path d="M22.3594 170.328L37.2694 156.875V183.575L22.3594 170.328Z" fill="#4E6075"/>
<path d="M14.9099 277.136L0 263.684V290.383L14.9099 277.136Z" fill="#4E6075"/>
<path d="M14.9099 310.517L0 297.055V323.763L14.9099 310.517Z" fill="#4E6075"/>
<path d="M22.3594 230.41L37.2694 216.957V243.657L22.3594 230.41Z" fill="#4E6075"/>
<path d="M22.3594 263.79L37.2694 250.328V277.028L22.3594 263.79Z" fill="#4E6075"/>
<path d="M14.9099 370.599L0 357.137V383.837L14.9099 370.599Z" fill="#4E6075"/>
<path d="M14.9099 403.972L0 390.52V417.219L14.9099 403.972Z" fill="#4E6075"/>
<path d="M22.3594 323.863L37.2694 310.41V337.11L22.3594 323.863Z" fill="#4E6075"/>
<path d="M22.3594 357.246L37.2694 343.793V370.493L22.3594 357.246Z" fill="#4E6075"/>
<path d="M14.9099 464.054L0 450.602V477.301L14.9099 464.054Z" fill="#4E6075"/>
<path d="M14.9099 497.426L0 483.973V510.672L14.9099 497.426Z" fill="#4E6075"/>
<path d="M22.3594 417.325L37.2694 403.863V430.572L22.3594 417.325Z" fill="#4E6075"/>
<path d="M22.3594 450.699L37.2694 437.246V463.946L22.3594 450.699Z" fill="#4E6075"/>
<path d="M14.9099 557.508L0 544.055V570.755L14.9099 557.508Z" fill="#4E6075"/>
<path d="M14.9099 590.888L0 577.426V604.135L14.9099 590.888Z" fill="#4E6075"/>
<path d="M22.3594 510.781L37.2694 497.328V524.028L22.3594 510.781Z" fill="#4E6075"/>
<path d="M22.3594 544.161L37.2694 530.699V557.399L22.3594 544.161Z" fill="#4E6075"/>
<path d="M14.9099 650.97L0 637.508V664.208L14.9099 650.97Z" fill="#4E6075"/>
<path d="M14.9099 684.343L0 670.891V697.59L14.9099 684.343Z" fill="#4E6075"/>
<path d="M22.3594 604.234L37.2694 590.781V617.481L22.3594 604.234Z" fill="#4E6075"/>
<path d="M22.3594 637.617L37.2694 624.164V650.864L22.3594 637.617Z" fill="#4E6075"/>
<path d="M14.9099 744.423L0 730.961V757.67L14.9099 744.423Z" fill="#4E6075"/>
<path d="M14.9099 777.797L0 764.344V791.044L14.9099 777.797Z" fill="#4E6075"/>
<path d="M22.3594 697.696L37.2694 684.234V710.943L22.3594 697.696Z" fill="#4E6075"/>
<path d="M22.3594 731.07L37.2694 717.617V744.317L22.3594 731.07Z" fill="#4E6075"/>
<path d="M14.9099 837.879L0 824.426V851.126L14.9099 837.879Z" fill="#4E6075"/>
<path d="M14.9099 871.259L0 857.797V884.506L14.9099 871.259Z" fill="#4E6075"/>
<path d="M22.3594 791.152L37.2694 777.699V804.399L22.3594 791.152Z" fill="#4E6075"/>
<path d="M22.3594 824.532L37.2694 811.07V837.77L22.3594 824.532Z" fill="#4E6075"/>
<path d="M14.9099 931.341L0 917.879V944.579L14.9099 931.341Z" fill="#4E6075"/>
<path d="M14.9099 964.711L0 951.258V977.958L14.9099 964.711Z" fill="#4E6075"/>
<path d="M22.3594 884.605L37.2694 871.152V897.852L22.3594 884.605Z" fill="#4E6075"/>
<path d="M22.3594 917.984L37.2694 904.531V931.231L22.3594 917.984Z" fill="#4E6075"/>
<path d="M22.3594 978.067L37.2694 964.605V991.314L22.3594 978.067Z" fill="#4E6075"/>
<path d="M37.2694 13.4619L22.3594 0V26.6998L37.2694 13.4619Z" fill="#D69030"/>
<path d="M37.2694 106.915L22.3594 93.4531V120.162L37.2694 106.915Z" fill="#D69030"/>
<path d="M0 60.1884L14.9099 46.7266V73.4353L0 60.1884Z" fill="#D69030"/>
<path d="M37.2694 200.371L22.3594 186.918V213.618L37.2694 200.371Z" fill="#D69030"/>
<path d="M0 153.644L14.9099 140.191V166.891L0 153.644Z" fill="#D69030"/>
<path d="M37.2694 293.833L22.3594 280.371V307.071L37.2694 293.833Z" fill="#D69030"/>
<path d="M0 247.097L14.9099 233.645V260.344L0 247.097Z" fill="#D69030"/>
<path d="M37.2694 387.286L22.3594 373.824V400.533L37.2694 387.286Z" fill="#D69030"/>
<path d="M0 340.56L14.9099 327.098V353.806L0 340.56Z" fill="#D69030"/>
<path d="M37.2694 480.738L22.3594 467.285V493.985L37.2694 480.738Z" fill="#D69030"/>
<path d="M0 434.011L14.9099 420.559V447.258L0 434.011Z" fill="#D69030"/>
<path d="M37.2694 574.204L22.3594 560.742V587.442L37.2694 574.204Z" fill="#D69030"/>
<path d="M0 527.465L14.9099 514.012V540.712L0 527.465Z" fill="#D69030"/>
<path d="M37.2694 667.657L22.3594 654.195V680.904L37.2694 667.657Z" fill="#D69030"/>
<path d="M0 620.931L14.9099 607.469V634.169L0 620.931Z" fill="#D69030"/>
<path d="M37.2694 761.109L22.3594 747.656V774.356L37.2694 761.109Z" fill="#D69030"/>
<path d="M0 714.383L14.9099 700.93V727.629L0 714.383Z" fill="#D69030"/>
<path d="M37.2694 854.562L22.3594 841.109V867.809L37.2694 854.562Z" fill="#D69030"/>
<path d="M0 807.836L14.9099 794.383V821.083L0 807.836Z" fill="#D69030"/>
<path d="M37.2694 948.024L22.3594 934.562V961.271L37.2694 948.024Z" fill="#D69030"/>
<path d="M0 901.298L14.9099 887.836V914.536L0 901.298Z" fill="#D69030"/>
<path d="M0 994.754L14.9099 981.301V1008L0 994.754Z" fill="#D69030"/>
</g>
<defs>
<clipPath id="clip0_596_5227">
<rect width="37.271" height="1008" fill="white"/>
</clipPath>
</defs>
</svg>
