<svg width="38" height="741" viewBox="0 0 38 741" fill="none" xmlns="http://www.w3.org/2000/svg">
<g clip-path="url(#clip0_596_5395)">
<path d="M14.9099 22.1617L0 12.2656V31.8997L14.9099 22.1617Z" fill="#4E6075"/>
<path d="M14.9099 66.3297L0 56.4336V76.0611L14.9099 66.3297Z" fill="#4E6075"/>
<path d="M14.9099 90.8621L0 80.9727V100.6L14.9099 90.8621Z" fill="#4E6075"/>
<path d="M22.3594 31.9715L37.2694 22.082V41.7096L22.3594 31.9715Z" fill="#4E6075"/>
<path d="M22.3594 56.5106L37.2694 46.6211V66.2486L22.3594 56.5106Z" fill="#4E6075"/>
<path d="M14.9099 135.03L0 125.141V144.768L14.9099 135.03Z" fill="#4E6075"/>
<path d="M14.9099 159.561L0 149.672V169.299L14.9099 159.561Z" fill="#4E6075"/>
<path d="M22.3594 100.677L37.2694 90.7812V110.415L22.3594 100.677Z" fill="#4E6075"/>
<path d="M22.3594 125.214L37.2694 115.324V134.952L22.3594 125.214Z" fill="#4E6075"/>
<path d="M14.9099 203.729L0 193.84V213.467L14.9099 203.729Z" fill="#4E6075"/>
<path d="M14.9099 228.267L0 218.371V238.005L14.9099 228.267Z" fill="#4E6075"/>
<path d="M22.3594 169.378L37.2694 159.488V179.116L22.3594 169.378Z" fill="#4E6075"/>
<path d="M22.3594 193.92L37.2694 184.023V203.651L22.3594 193.92Z" fill="#4E6075"/>
<path d="M14.9099 272.435L0 262.539V282.167L14.9099 272.435Z" fill="#4E6075"/>
<path d="M14.9099 296.968L0 287.078V306.706L14.9099 296.968Z" fill="#4E6075"/>
<path d="M22.3594 238.077L37.2694 228.188V247.815L22.3594 238.077Z" fill="#4E6075"/>
<path d="M22.3594 262.616L37.2694 252.727V272.354L22.3594 262.616Z" fill="#4E6075"/>
<path d="M14.9099 341.136L0 331.246V350.874L14.9099 341.136Z" fill="#4E6075"/>
<path d="M14.9099 365.667L0 355.777V375.405L14.9099 365.667Z" fill="#4E6075"/>
<path d="M22.3594 306.783L37.2694 296.887V316.521L22.3594 306.783Z" fill="#4E6075"/>
<path d="M22.3594 331.319L37.2694 321.43V341.057L22.3594 331.319Z" fill="#4E6075"/>
<path d="M14.9099 409.835L0 399.945V419.573L14.9099 409.835Z" fill="#4E6075"/>
<path d="M14.9099 434.373L0 424.477V444.111L14.9099 434.373Z" fill="#4E6075"/>
<path d="M22.3594 375.483L37.2694 365.594V385.221L22.3594 375.483Z" fill="#4E6075"/>
<path d="M22.3594 400.025L37.2694 390.129V409.756L22.3594 400.025Z" fill="#4E6075"/>
<path d="M14.9099 478.541L0 468.645V488.272L14.9099 478.541Z" fill="#4E6075"/>
<path d="M14.9099 503.073L0 493.184V512.811L14.9099 503.073Z" fill="#4E6075"/>
<path d="M22.3594 444.182L37.2694 434.293V453.92L22.3594 444.182Z" fill="#4E6075"/>
<path d="M22.3594 468.722L37.2694 458.832V478.46L22.3594 468.722Z" fill="#4E6075"/>
<path d="M14.9099 547.24L0 537.344V556.978L14.9099 547.24Z" fill="#4E6075"/>
<path d="M14.9099 571.772L0 561.883V581.51L14.9099 571.772Z" fill="#4E6075"/>
<path d="M22.3594 512.888L37.2694 502.992V522.626L22.3594 512.888Z" fill="#4E6075"/>
<path d="M22.3594 537.425L37.2694 527.535V547.163L22.3594 537.425Z" fill="#4E6075"/>
<path d="M14.9099 615.94L0 606.051V625.678L14.9099 615.94Z" fill="#4E6075"/>
<path d="M14.9099 640.478L0 630.582V650.216L14.9099 640.478Z" fill="#4E6075"/>
<path d="M22.3594 581.589L37.2694 571.699V591.327L22.3594 581.589Z" fill="#4E6075"/>
<path d="M22.3594 606.13L37.2694 596.234V615.862L22.3594 606.13Z" fill="#4E6075"/>
<path d="M14.9099 684.646L0 674.75V694.378L14.9099 684.646Z" fill="#4E6075"/>
<path d="M14.9099 709.179L0 699.289V718.917L14.9099 709.179Z" fill="#4E6075"/>
<path d="M22.3594 650.288L37.2694 640.398V660.026L22.3594 650.288Z" fill="#4E6075"/>
<path d="M22.3594 674.827L37.2694 664.938V684.565L22.3594 674.827Z" fill="#4E6075"/>
<path d="M22.3594 718.994L37.2694 709.098V728.732L22.3594 718.994Z" fill="#4E6075"/>
<path d="M37.2694 9.89606L22.3594 0V19.6275L37.2694 9.89606Z" fill="#D69030"/>
<path d="M37.2694 78.5953L22.3594 68.6992V88.3333L37.2694 78.5953Z" fill="#D69030"/>
<path d="M0 44.2476L14.9099 34.3516V53.9857L0 44.2476Z" fill="#D69030"/>
<path d="M37.2694 147.296L22.3594 137.406V157.034L37.2694 147.296Z" fill="#D69030"/>
<path d="M0 112.944L14.9099 103.055V122.682L0 112.944Z" fill="#D69030"/>
<path d="M37.2694 216.002L22.3594 206.105V225.733L37.2694 216.002Z" fill="#D69030"/>
<path d="M0 181.643L14.9099 171.754V191.381L0 181.643Z" fill="#D69030"/>
<path d="M37.2694 284.701L22.3594 274.805V294.439L37.2694 284.701Z" fill="#D69030"/>
<path d="M0 250.353L14.9099 240.457V260.091L0 250.353Z" fill="#D69030"/>
<path d="M37.2694 353.401L22.3594 343.512V363.139L37.2694 353.401Z" fill="#D69030"/>
<path d="M0 319.05L14.9099 309.16V328.788L0 319.05Z" fill="#D69030"/>
<path d="M37.2694 422.107L22.3594 412.211V431.838L37.2694 422.107Z" fill="#D69030"/>
<path d="M0 387.749L14.9099 377.859V397.487L0 387.749Z" fill="#D69030"/>
<path d="M37.2694 490.806L22.3594 480.91V500.544L37.2694 490.806Z" fill="#D69030"/>
<path d="M0 456.459L14.9099 446.562V466.19L0 456.459Z" fill="#D69030"/>
<path d="M37.2694 559.507L22.3594 549.617V569.245L37.2694 559.507Z" fill="#D69030"/>
<path d="M0 525.155L14.9099 515.266V534.893L0 525.155Z" fill="#D69030"/>
<path d="M37.2694 628.206L22.3594 618.316V637.944L37.2694 628.206Z" fill="#D69030"/>
<path d="M0 593.854L14.9099 583.965V603.592L0 593.854Z" fill="#D69030"/>
<path d="M37.2694 696.912L22.3594 687.016V706.65L37.2694 696.912Z" fill="#D69030"/>
<path d="M0 662.564L14.9099 652.668V672.295L0 662.564Z" fill="#D69030"/>
<path d="M0 731.261L14.9099 721.371V740.999L0 731.261Z" fill="#D69030"/>
</g>
<defs>
<clipPath id="clip0_596_5395">
<rect width="37.271" height="741" fill="white"/>
</clipPath>
</defs>
</svg>
