<svg width="34" height="34" viewBox="0 0 34 34" fill="none" xmlns="http://www.w3.org/2000/svg">
<path fill-rule="evenodd" clip-rule="evenodd" d="M17 0C7.62009 0 0 7.62038 0 17.0002C0 26.3801 7.62016 34 17 34C26.3798 34 34 26.3802 34 17.0002C34 7.62031 26.3799 0 17 0ZM27.1767 22.4952C27.0605 22.7775 26.5126 23.1757 24.5869 23.4749C24.4209 23.5077 24.3711 23.707 24.2714 24.1389C24.2405 24.2957 24.2018 24.4508 24.1553 24.6037C24.1054 24.7528 24.0224 24.8194 23.8731 24.8194H23.8564C23.7103 24.816 23.5652 24.7937 23.4248 24.7529C23.0412 24.6829 22.6525 24.6442 22.2627 24.6369C21.9846 24.6349 21.7068 24.6571 21.4326 24.7031C20.8515 24.803 20.3701 25.1515 19.8389 25.5168C19.0918 26.0481 18.3115 26.5959 17.0995 26.5959H16.834C15.622 26.5959 14.8417 26.0481 14.0947 25.5167C13.5801 25.1514 13.082 24.803 12.501 24.7031C12.2268 24.657 11.949 24.6349 11.6709 24.637C11.2802 24.6438 10.891 24.6882 10.5088 24.7697C10.3671 24.8043 10.2226 24.8265 10.0771 24.8358C10.0094 24.8433 9.94137 24.8253 9.88617 24.7855C9.83098 24.7456 9.79253 24.6867 9.77829 24.6201C9.72849 24.4541 9.69528 24.2881 9.66201 24.1389C9.579 23.7404 9.51266 23.5077 9.34664 23.4749C7.42079 23.1757 6.87299 22.7775 6.75678 22.4952C6.73798 22.4533 6.72674 22.4083 6.72358 22.3625C6.72247 22.3104 6.74042 22.2598 6.77405 22.22C6.80769 22.1803 6.85469 22.1542 6.9062 22.1468C9.8613 21.6487 11.1894 18.6271 11.2392 18.4944H11.2559C11.4384 18.129 11.4716 17.797 11.3554 17.548C11.1562 17.0664 10.4921 16.8506 10.0605 16.7179C9.9593 16.6897 9.85956 16.6563 9.76169 16.618C8.88178 16.2695 8.81537 15.9211 8.84857 15.7382C8.91498 15.423 9.31343 15.2069 9.66201 15.2069C9.74229 15.2058 9.82177 15.2229 9.89444 15.2571C10.2929 15.4395 10.6415 15.5389 10.9404 15.5389C11.372 15.5389 11.5546 15.3564 11.5712 15.3401C11.5712 15.1407 11.5546 14.925 11.538 14.7088C11.455 13.3146 11.3388 11.5714 11.7871 10.5753C13.1152 7.60343 15.9209 7.37128 16.7509 7.37128H17.166C17.9961 7.37128 20.8183 7.60343 22.1464 10.5753C22.5947 11.5714 22.4785 13.3146 22.3955 14.7088V14.7754C22.3789 14.9579 22.3623 15.1572 22.3623 15.34C22.3789 15.3565 22.5449 15.5225 22.9267 15.5389C23.2256 15.5224 23.5576 15.423 23.9229 15.2571C24.0226 15.2142 24.1297 15.1916 24.2382 15.1905C24.3591 15.1924 24.4781 15.2207 24.5869 15.2735H24.6035C24.8857 15.3729 25.0849 15.5891 25.0849 15.8048C25.1015 16.0041 24.9355 16.3193 24.1718 16.618C24.0888 16.6513 23.9892 16.6846 23.8896 16.7179C23.4413 16.8506 22.7773 17.0664 22.578 17.548C22.4619 17.7971 22.495 18.1291 22.6776 18.4944H22.6942C22.7441 18.6271 24.0722 21.6487 27.0273 22.1468C27.0788 22.1542 27.1258 22.1803 27.1594 22.22C27.193 22.2598 27.211 22.3104 27.2099 22.3625C27.2067 22.4083 27.1955 22.4533 27.1767 22.4952Z" fill="white"/>
</svg>
